<svg width="28" height="28" viewBox="0 0 28 28" fill="none" xmlns="http://www.w3.org/2000/svg">
<g clip-path="url(#clip0_366_105)">
<path d="M22.5029 7.64211H22.7954C23.0879 7.64211 23.3309 7.38112 23.3309 7.06612C23.3309 6.67462 23.1914 6.59812 22.9619 6.51712L22.5074 6.35962V7.64211H22.5029Z" fill="#5C646B"/>
<path d="M22.1535 1.33326C19.6695 1.34226 17.658 3.36275 17.667 5.84674C17.676 8.33073 19.6965 10.3422 22.1805 10.3332C24.6645 10.3242 26.676 8.30373 26.667 5.81974C26.658 3.33575 24.6375 1.32876 22.1535 1.33326ZM23.184 5.87824C23.535 5.99974 24.0075 6.26074 24.0075 7.06624C24.0075 7.75923 23.463 8.31723 22.797 8.31723H22.5045V8.57823C22.5045 8.76273 22.3515 8.91573 22.167 8.91573C21.9825 8.91573 21.8295 8.76273 21.8295 8.57823V8.31723H21.6675C20.9295 8.31723 20.331 7.69623 20.331 6.93124C20.331 6.74674 20.484 6.59374 20.6685 6.59374C20.853 6.59374 21.006 6.74674 21.006 6.93124C21.006 7.32273 21.303 7.64223 21.6675 7.64223H21.8295V6.12124L21.15 5.87824C20.799 5.75674 20.3265 5.49574 20.3265 4.69025C20.3265 3.99725 20.871 3.43925 21.537 3.43925H21.8295V3.17825C21.8295 2.99375 21.9825 2.84075 22.167 2.84075C22.3515 2.84075 22.5045 2.99375 22.5045 3.17825V3.43925H22.6665C23.4045 3.43925 24.003 4.06025 24.003 4.82524C24.003 5.00974 23.85 5.16274 23.6655 5.16274C23.481 5.16274 23.328 5.00974 23.328 4.82524C23.328 4.43375 23.031 4.11425 22.6665 4.11425H22.5045V5.63524L23.184 5.87824Z" fill="#5C646B"/>
<path d="M21.0059 4.69488C21.0059 5.08638 21.1454 5.16288 21.3749 5.24388L21.8294 5.40137V4.11438H21.5369C21.2444 4.11438 21.0059 4.37538 21.0059 4.69488Z" fill="#5C646B"/>
<path d="M25.6663 14C25.6663 12.4717 25.3747 11.0017 24.8263 9.66004C24.4647 9.91671 24.0563 10.115 23.6247 10.255C23.4963 10.3017 23.368 10.3367 23.228 10.3717C23.6713 11.4917 23.9163 12.7167 23.9163 14C23.9163 16.7067 22.8197 19.1684 21.0463 20.965C20.708 20.5334 20.2763 20.1367 19.763 19.7984C16.6013 17.675 11.4213 17.675 8.23634 19.7984C7.72301 20.1367 7.30301 20.5334 6.95301 20.965C5.17967 19.1684 4.08301 16.7067 4.08301 14C4.08301 8.52837 8.52801 4.08337 13.9997 4.08337C15.2713 4.08337 16.4963 4.32837 17.6163 4.77171C17.6513 4.63171 17.6863 4.50337 17.733 4.36337C17.873 3.93171 18.0713 3.53504 18.3397 3.17337C16.998 2.62504 15.528 2.33337 13.9997 2.33337C7.57134 2.33337 2.33301 7.57171 2.33301 14C2.33301 17.3834 3.79134 20.4284 6.10134 22.5634C6.10134 22.575 6.10134 22.575 6.08967 22.5867C6.20634 22.7034 6.34634 22.7967 6.46301 22.9017C6.53301 22.96 6.59134 23.0184 6.66134 23.065C6.87134 23.24 7.10467 23.4034 7.32634 23.5667C7.40801 23.625 7.47801 23.6717 7.55967 23.73C7.78134 23.8817 8.01467 24.0217 8.25968 24.15C8.34134 24.1967 8.43468 24.255 8.51634 24.3017C8.74968 24.43 8.99467 24.5467 9.25134 24.6517C9.34467 24.6984 9.43801 24.745 9.53134 24.78C9.78801 24.885 10.0447 24.9784 10.3013 25.06C10.3947 25.095 10.488 25.13 10.5813 25.1534C10.8613 25.235 11.1413 25.305 11.4213 25.375C11.503 25.3984 11.5847 25.4217 11.678 25.4334C12.0047 25.5034 12.3313 25.55 12.6697 25.585C12.7163 25.585 12.763 25.5967 12.8097 25.6084C13.2063 25.6434 13.603 25.6667 13.9997 25.6667C14.3963 25.6667 14.793 25.6434 15.178 25.6084C15.2247 25.6084 15.2713 25.5967 15.318 25.585C15.6563 25.55 15.983 25.5034 16.3097 25.4334C16.3913 25.4217 16.473 25.3867 16.5663 25.375C16.8463 25.305 17.138 25.2467 17.4063 25.1534C17.4997 25.1184 17.593 25.0834 17.6863 25.06C17.943 24.9667 18.2113 24.885 18.4563 24.78C18.5497 24.745 18.643 24.6984 18.7363 24.6517C18.9813 24.5467 19.2263 24.43 19.4713 24.3017C19.5647 24.255 19.6463 24.1967 19.728 24.15C19.9613 24.01 20.1947 23.8817 20.428 23.73C20.5097 23.6834 20.5797 23.625 20.6613 23.5667C20.8947 23.4034 21.1163 23.24 21.3263 23.065C21.3963 23.0067 21.4547 22.9484 21.5247 22.9017C21.653 22.7967 21.7813 22.6917 21.898 22.5867C21.898 22.575 21.898 22.575 21.8863 22.5634C24.208 20.4284 25.6663 17.3834 25.6663 14Z" fill="#5C646B"/>
<path d="M14 8.08508C11.585 8.08508 9.625 10.0451 9.625 12.4601C9.625 14.8284 11.48 16.7534 13.9417 16.8234C13.9767 16.8234 14.0233 16.8234 14.0467 16.8234C14.07 16.8234 14.105 16.8234 14.1283 16.8234C14.14 16.8234 14.1517 16.8234 14.1517 16.8234C16.5083 16.7417 18.3633 14.8284 18.375 12.4601C18.375 10.0451 16.415 8.08508 14 8.08508Z" fill="#5C646B"/>
</g>
<defs>
<clipPath id="clip0_366_105">
<rect width="28" height="28" fill="white"/>
</clipPath>
</defs>
</svg>
