<svg width="22" height="22" viewBox="0 0 22 22" fill="none" xmlns="http://www.w3.org/2000/svg">
<path d="M10.0992 0H11.8609C11.8834 0.0515 11.9313 0.0388878 11.9717 0.0425664C13.6362 0.190235 15.1977 0.675281 16.6189 1.55236C19.5553 3.36379 21.3217 5.97348 21.8807 9.38982C21.9238 9.65415 21.9133 9.92637 22 10.1839V11.8597C21.918 12.0599 21.9327 12.2754 21.9023 12.4835C21.5566 14.8746 20.573 16.9672 18.8613 18.6709C16.0367 21.4829 12.6295 22.5313 8.7216 21.7483C5.85029 21.1733 3.5832 19.6021 1.92609 17.1937C0.335184 14.8814 -0.263245 12.3048 0.10506 9.52435C0.420824 7.13748 1.438 5.07275 3.11822 3.34645C4.841 1.57653 6.92841 0.502914 9.37152 0.120342C9.61425 0.0825051 9.86644 0.0993215 10.0992 0Z" fill="#14BB7F"/>
</svg>
