<svg width="92" height="27" viewBox="0 0 92 27" fill="none" xmlns="http://www.w3.org/2000/svg">
<path d="M3.87727 11.8379C3.7155 11.6692 3.7155 11.4029 3.87727 11.2341L12.1623 2.59048C12.4344 2.30665 12.9136 2.49922 12.9136 2.89238L12.9136 20.1797C12.9136 20.5729 12.4344 20.7654 12.1623 20.4816L3.87727 11.8379Z" fill="#23CAFF"/>
<path d="M23.6437 16.6481C23.8055 16.8169 23.8055 17.0832 23.6437 17.2519L15.3587 25.8956C15.0866 26.1794 14.6074 25.9869 14.6074 25.5937L14.6074 8.30638C14.6074 7.91321 15.0866 7.72064 15.3587 8.00448L23.6437 16.6481Z" fill="#B9C4FF"/>
<path d="M27.3138 10.3159H24.7768V8.76549H31.5422V10.3159H29.0052V17.6836H27.3138V10.3159ZM38.5393 14.8518H33.8881C33.9564 15.3644 34.1444 15.7573 34.4519 16.0307C34.7679 16.304 35.1865 16.4407 35.7076 16.4407C36.092 16.4407 36.5063 16.3724 36.9505 16.2357C37.4032 16.0905 37.8218 15.894 38.2062 15.6463H38.2574V17.0173C37.9158 17.2821 37.5228 17.4871 37.0786 17.6323C36.643 17.769 36.1817 17.8374 35.6948 17.8374C34.9943 17.8374 34.3835 17.6964 33.8625 17.4145C33.3414 17.1326 32.9399 16.7269 32.658 16.1972C32.3761 15.6676 32.2352 15.0483 32.2352 14.3393C32.2352 13.6474 32.3676 13.0366 32.6324 12.507C32.9057 11.9774 33.2859 11.5673 33.7728 11.2769C34.2597 10.9865 34.8235 10.8413 35.4641 10.8413C36.0877 10.8413 36.6301 10.9822 37.0914 11.2641C37.5613 11.546 37.92 11.9517 38.1678 12.4814C38.4155 13.011 38.5393 13.6303 38.5393 14.3393V14.8518ZM35.4641 12.1995C35.0626 12.1995 34.7252 12.3319 34.4519 12.5967C34.1871 12.8615 34.0077 13.2288 33.9137 13.6986H36.7967C36.7284 13.2117 36.5832 12.8401 36.3611 12.5839C36.139 12.3276 35.84 12.1995 35.4641 12.1995ZM42.7627 14.8775L41.9939 15.7231V17.6836H40.3026V8.02231H41.9939V13.6858L44.326 10.995H46.248L43.8134 13.6986L46.4017 17.6836H44.4669L42.7627 14.8775Z" fill="#23CAFF"/>
<path d="M55.418 8.76549V17.6836H53.7267V13.7627H49.4983V17.6836H47.8069V8.76549H49.4983V12.2635H53.7267V8.76549H55.418ZM63.7827 14.8518H59.1314C59.1998 15.3644 59.3877 15.7573 59.6952 16.0307C60.0113 16.304 60.4298 16.4407 60.9509 16.4407C61.3353 16.4407 61.7496 16.3724 62.1938 16.2357C62.6465 16.0905 63.0651 15.894 63.4495 15.6463H63.5008V17.0173C63.1591 17.2821 62.7661 17.4871 62.3219 17.6323C61.8863 17.769 61.425 17.8374 60.9381 17.8374C60.2376 17.8374 59.6269 17.6964 59.1058 17.4145C58.5847 17.1326 58.1832 16.7269 57.9013 16.1972C57.6194 15.6676 57.4785 15.0483 57.4785 14.3393C57.4785 13.6474 57.6109 13.0366 57.8757 12.507C58.1491 11.9774 58.5292 11.5673 59.0161 11.2769C59.503 10.9865 60.0668 10.8413 60.7075 10.8413C61.331 10.8413 61.8735 10.9822 62.3348 11.2641C62.8046 11.546 63.1634 11.9517 63.4111 12.4814C63.6588 13.011 63.7827 13.6303 63.7827 14.3393V14.8518ZM60.7075 12.1995C60.306 12.1995 59.9686 12.3319 59.6952 12.5967C59.4304 12.8615 59.251 13.2288 59.157 13.6986H62.04C61.9717 13.2117 61.8265 12.8401 61.6044 12.5839C61.3823 12.3276 61.0833 12.1995 60.7075 12.1995ZM69.6462 17.6836L69.4796 16.8764C68.8731 17.517 68.1428 17.8374 67.2885 17.8374C66.6137 17.8374 66.0627 17.6622 65.6356 17.312C65.217 16.9618 65.0077 16.5005 65.0077 15.9282C65.0077 15.185 65.2811 14.6084 65.8278 14.1984C66.383 13.7798 67.1817 13.5705 68.2239 13.5705C68.5998 13.5705 68.9756 13.5876 69.3515 13.6218V13.3783C69.3515 13.0024 69.2447 12.7248 69.0311 12.5454C68.8176 12.3575 68.4802 12.2635 68.0189 12.2635C67.5661 12.2635 67.1433 12.3404 66.7504 12.4942C66.366 12.6394 65.9474 12.8786 65.4947 13.2117V11.6997C65.8876 11.4008 66.2976 11.1829 66.7247 11.0463C67.1519 10.9096 67.6217 10.8413 68.1342 10.8413C69.0824 10.8413 69.8042 11.0463 70.2997 11.4563C70.8037 11.8578 71.0557 12.4472 71.0557 13.2245V16.1972L71.3376 17.6836H69.6462ZM66.6991 15.8C66.6991 16.2955 66.981 16.5432 67.5448 16.5432C67.8694 16.5432 68.1769 16.4791 68.4674 16.351C68.7578 16.2143 69.0525 16.0008 69.3515 15.7103V14.8006H68.1214C67.6259 14.8006 67.2629 14.8732 67.0323 15.0184C66.8102 15.1636 66.6991 15.4242 66.6991 15.8ZM72.7993 8.02231H74.4906V17.6836H72.7993V8.02231ZM78.4535 10.995H79.9911V12.2507H78.4535V15.4797C78.4535 16.1289 78.7012 16.4535 79.1967 16.4535C79.4273 16.4535 79.6964 16.3724 80.0039 16.2101V17.6067C79.7903 17.6836 79.5896 17.7391 79.4017 17.7733C79.2223 17.816 79.0173 17.8374 78.7866 17.8374C77.4369 17.8374 76.7621 17.0515 76.7621 15.4797V12.2507H75.7883V10.995H76.7621V9.20114L78.4535 8.61173V10.995ZM85.3777 10.8413C86.0525 10.8413 86.595 11.042 87.005 11.4435C87.4236 11.8364 87.6329 12.3575 87.6329 13.0067V17.6836H85.9415V13.9677C85.9415 13.3868 85.8518 12.9725 85.6724 12.7248C85.5016 12.4686 85.2154 12.3404 84.8139 12.3404C84.3612 12.3404 83.8913 12.5924 83.4044 13.0964V17.6836H81.7131V8.02231H83.4044V11.6869C83.7376 11.388 84.0579 11.1744 84.3654 11.0463C84.6815 10.9096 85.0189 10.8413 85.3777 10.8413Z" fill="#B9C4FF"/>
</svg>
