<svg width="628" height="468" viewBox="0 0 628 468" fill="none" xmlns="http://www.w3.org/2000/svg">
<path d="M628 411.214H0V411.528H628V411.214Z" fill="#EBEBEB"/>
<path d="M565.075 431.424H523.476V431.738H565.075V431.424Z" fill="#EBEBEB"/>
<path d="M416.012 434.839H405.098V435.153H416.012V434.839Z" fill="#EBEBEB"/>
<path d="M522.219 419.769H498.117V420.083H522.219V419.769Z" fill="#EBEBEB"/>
<path d="M120.137 421.878H65.8901V422.192H120.137V421.878Z" fill="#EBEBEB"/>
<path d="M139.278 421.878H131.327V422.192H139.278V421.878Z" fill="#EBEBEB"/>
<path d="M282.788 427.179H165.126V427.493H282.788V427.179Z" fill="#EBEBEB"/>
<path d="M297.672 355.197H55.1511C53.2513 355.194 51.4303 354.437 50.0881 353.092C48.7458 351.747 47.9919 349.925 47.9919 348.025V7.1092C48.0085 5.22021 48.7697 3.41403 50.1101 2.08297C51.4506 0.751908 53.2621 0.00348008 55.1511 0.000244141H297.672C299.574 0.000244141 301.398 0.755838 302.743 2.1008C304.088 3.44577 304.844 5.26993 304.844 7.172V348.025C304.844 349.927 304.088 351.752 302.743 353.096C301.398 354.441 299.574 355.197 297.672 355.197ZM55.1511 0.251445C53.3345 0.254772 51.5935 0.97875 50.3101 2.26447C49.0267 3.55019 48.3059 5.29259 48.3059 7.1092V348.025C48.3059 349.842 49.0267 351.584 50.3101 352.87C51.5935 354.156 53.3345 354.88 55.1511 354.883H297.672C299.49 354.88 301.232 354.156 302.518 352.871C303.803 351.585 304.527 349.843 304.53 348.025V7.1092C304.527 5.29143 303.803 3.54906 302.518 2.2637C301.232 0.978342 299.49 0.254765 297.672 0.251445H55.1511Z" fill="#EBEBEB"/>
<path d="M569.357 355.197H326.824C324.923 355.194 323.1 354.437 321.756 353.093C320.412 351.749 319.655 349.926 319.652 348.025V7.1092C319.672 5.21907 320.436 3.41289 321.778 2.08218C323.121 0.751469 324.933 0.00344479 326.824 0.000244141H569.357C571.244 0.00678099 573.052 0.756669 574.39 2.08737C575.728 3.41808 576.487 5.22238 576.504 7.1092V348.025C576.504 349.923 575.752 351.743 574.412 353.088C573.073 354.432 571.255 355.19 569.357 355.197ZM326.824 0.251445C325.006 0.254765 323.263 0.978342 321.978 2.2637C320.693 3.54906 319.969 5.29143 319.966 7.1092V348.025C319.969 349.843 320.693 351.585 321.978 352.871C323.263 354.156 325.006 354.88 326.824 354.883H569.357C571.175 354.88 572.917 354.156 574.203 352.871C575.488 351.585 576.212 349.843 576.215 348.025V7.1092C576.212 5.29143 575.488 3.54906 574.203 2.2637C572.917 0.978342 571.175 0.254765 569.357 0.251445H326.824Z" fill="#EBEBEB"/>
<path d="M279.699 161.686H83.0847V410.65H279.699V161.686Z" fill="#F0F0F0"/>
<path d="M272.74 170.766H90.0298V224.008H272.74V170.766Z" fill="#E0E0E0"/>
<path d="M100.404 179.382H90.0298V223.995H100.404V179.382Z" fill="#EBEBEB"/>
<path d="M150.594 179.382H140.22V223.995H150.594V179.382Z" fill="#EBEBEB"/>
<path d="M207.566 178.25L197.343 180.012L204.921 223.977L215.145 222.215L207.566 178.25Z" fill="#EBEBEB"/>
<path d="M113.266 185.26H102.891V223.995H113.266V185.26Z" fill="#EBEBEB"/>
<path d="M137.118 185.26H126.743V223.995H137.118V185.26Z" fill="#EBEBEB"/>
<path d="M197.33 185.26H186.955V223.995H197.33V185.26Z" fill="#EBEBEB"/>
<path d="M164.224 183.926L154.097 186.177L162.5 223.989L172.628 221.738L164.224 183.926Z" fill="#EBEBEB"/>
<path d="M122.247 177.16H117.06V223.996H122.247V177.16Z" fill="#EBEBEB"/>
<path d="M183.979 177.16H178.792V223.996H183.979V177.16Z" fill="#EBEBEB"/>
<path d="M90.0299 285.665H272.74V232.423L90.0299 232.423V285.665Z" fill="#E0E0E0"/>
<path d="M262.366 285.665H272.74V241.052H262.366V285.665Z" fill="#EBEBEB"/>
<path d="M212.176 285.665H222.551V241.052H212.176V285.665Z" fill="#EBEBEB"/>
<path d="M147.628 283.908L157.852 285.67L165.43 241.705L155.206 239.943L147.628 283.908Z" fill="#EBEBEB"/>
<path d="M249.492 285.665H259.866V246.93H249.492V285.665Z" fill="#EBEBEB"/>
<path d="M225.653 285.665H236.027V246.93H225.653V285.665Z" fill="#EBEBEB"/>
<path d="M165.428 285.665H175.802V246.93H165.428V285.665Z" fill="#EBEBEB"/>
<path d="M190.158 283.405L200.285 285.656L208.689 247.844L198.562 245.593L190.158 283.405Z" fill="#EBEBEB"/>
<path d="M240.524 285.665H245.711V238.829H240.524V285.665Z" fill="#EBEBEB"/>
<path d="M178.792 285.665H183.979V238.829H178.792V285.665Z" fill="#EBEBEB"/>
<path d="M100.404 241.051H90.0298V285.664H100.404V241.051Z" fill="#EBEBEB"/>
<path d="M113.266 246.93H102.891V285.665H113.266V246.93Z" fill="#EBEBEB"/>
<path d="M137.118 246.93H126.743V285.665H137.118V246.93Z" fill="#EBEBEB"/>
<path d="M122.247 238.83H117.06V285.666H122.247V238.83Z" fill="#EBEBEB"/>
<path d="M272.74 294.093H90.0298V347.335H272.74V294.093Z" fill="#E0E0E0"/>
<path d="M205.268 302.709H194.894V347.322H205.268V302.709Z" fill="#EBEBEB"/>
<path d="M262.25 301.584L252.026 303.347L259.604 347.311L269.828 345.549L262.25 301.584Z" fill="#EBEBEB"/>
<path d="M167.94 308.6H157.565V347.335H167.94V308.6Z" fill="#EBEBEB"/>
<path d="M191.804 308.6H181.43V347.335H191.804V308.6Z" fill="#EBEBEB"/>
<path d="M252.016 308.6H241.642V347.335H252.016V308.6Z" fill="#EBEBEB"/>
<path d="M218.92 307.259L208.792 309.509L217.196 347.322L227.324 345.071L218.92 307.259Z" fill="#EBEBEB"/>
<path d="M176.92 300.498H171.733V347.334H176.92V300.498Z" fill="#EBEBEB"/>
<path d="M238.653 300.498H233.466V347.334H238.653V300.498Z" fill="#EBEBEB"/>
<path d="M142.845 301.597L132.621 303.359L140.199 347.324L150.423 345.561L142.845 301.597Z" fill="#EBEBEB"/>
<path d="M132.608 308.6H122.234V347.335H132.608V308.6Z" fill="#EBEBEB"/>
<path d="M99.5044 307.266L89.377 309.516L97.7805 347.329L107.908 345.078L99.5044 307.266Z" fill="#EBEBEB"/>
<path d="M119.244 300.498H114.057V347.334H119.244V300.498Z" fill="#EBEBEB"/>
<path d="M383.432 262.04H494.236C497.098 262.04 499.932 262.604 502.576 263.701C505.219 264.799 507.62 266.407 509.641 268.433C511.662 270.46 513.263 272.866 514.352 275.512C515.442 278.159 515.999 280.994 515.99 283.856V370.37H361.728V283.856C361.715 278.086 363.994 272.546 368.064 268.455C372.133 264.364 377.661 262.056 383.432 262.04Z" fill="#E6E6E6"/>
<path d="M328.921 326.171H348.741C350.445 326.165 352.134 326.495 353.71 327.143C355.286 327.791 356.719 328.744 357.926 329.947C359.132 331.15 360.089 332.58 360.742 334.154C361.395 335.729 361.73 337.416 361.728 339.121V410.713H315.984V339.121C315.983 337.421 316.316 335.737 316.966 334.166C317.615 332.595 318.568 331.167 319.769 329.965C320.97 328.762 322.397 327.808 323.968 327.157C325.538 326.506 327.221 326.171 328.921 326.171Z" fill="#E0E0E0"/>
<path d="M328.921 326.171H329.336C331.036 326.171 332.719 326.506 334.289 327.157C335.86 327.808 337.286 328.762 338.488 329.965C339.689 331.167 340.642 332.595 341.291 334.166C341.941 335.737 342.274 337.421 342.272 339.12V410.712H315.984V339.12C315.983 337.421 316.316 335.737 316.966 334.166C317.615 332.595 318.568 331.167 319.769 329.965C320.97 328.762 322.397 327.808 323.968 327.157C325.538 326.506 327.221 326.171 328.921 326.171Z" fill="#EBEBEB"/>
<path d="M499.85 377.78H347.799V410.649H499.85V377.78Z" fill="#E6E6E6"/>
<path d="M494.224 347.724H347.586C340.323 347.724 334.435 353.611 334.435 360.874V369.05C334.435 376.313 340.323 382.201 347.586 382.201H494.224C501.486 382.201 507.374 376.313 507.374 369.05V360.874C507.374 353.611 501.486 347.724 494.224 347.724Z" fill="#F5F5F5"/>
<path d="M493.973 347.724H475.798C468.536 347.724 462.648 353.611 462.648 360.874V369.05C462.648 376.313 468.536 382.201 475.798 382.201H493.973C501.235 382.201 507.123 376.313 507.123 369.05V360.874C507.123 353.611 501.235 347.724 493.973 347.724Z" fill="#E0E0E0"/>
<path d="M495.945 326.171H515.777C517.476 326.171 519.159 326.506 520.728 327.157C522.298 327.808 523.724 328.763 524.924 329.965C526.125 331.168 527.076 332.596 527.724 334.167C528.372 335.738 528.704 337.421 528.701 339.12V410.712H483.02V339.12C483.017 337.421 483.349 335.738 483.997 334.167C484.645 332.596 485.596 331.168 486.797 329.965C487.997 328.763 489.423 327.808 490.993 327.157C492.563 326.506 494.245 326.171 495.945 326.171Z" fill="#E0E0E0"/>
<path d="M495.945 326.171H496.372C498.071 326.171 499.754 326.506 501.323 327.157C502.893 327.808 504.319 328.763 505.519 329.965C506.72 331.168 507.671 332.596 508.319 334.167C508.967 335.738 509.299 337.421 509.296 339.12V410.712H483.02V339.12C483.017 337.421 483.349 335.738 483.997 334.167C484.645 332.596 485.596 331.168 486.797 329.965C487.997 328.763 489.423 327.808 490.993 327.157C492.563 326.506 494.245 326.171 495.945 326.171Z" fill="#F0F0F0"/>
<path d="M188.722 131.42C204.846 128.803 215.796 113.609 213.179 97.4842C210.562 81.3593 195.368 70.4094 179.243 73.0268C163.118 75.6443 152.168 90.8379 154.786 106.963C157.403 123.088 172.597 134.038 188.722 131.42Z" fill="#E0E0E0"/>
<path d="M188.013 127.056C201.727 124.829 211.041 111.907 208.814 98.192C206.588 84.4773 193.666 75.164 179.951 77.3902C166.236 79.6164 156.923 92.5391 159.149 106.254C161.375 119.968 174.298 129.282 188.013 127.056Z" fill="#F0F0F0"/>
<path d="M182.785 119.496V101.912L171.142 108.506" fill="#F0F0F0"/>
<path d="M182.786 120.753C182.452 120.753 182.133 120.62 181.897 120.385C181.662 120.149 181.53 119.83 181.53 119.497V104.061L171.758 109.599C171.468 109.762 171.125 109.803 170.805 109.714C170.485 109.624 170.213 109.412 170.05 109.122C169.886 108.834 169.843 108.492 169.93 108.172C170.017 107.852 170.227 107.58 170.514 107.414L182.17 100.82C182.361 100.713 182.577 100.657 182.796 100.659C183.015 100.661 183.23 100.72 183.419 100.83C183.608 100.941 183.765 101.099 183.874 101.289C183.984 101.479 184.041 101.694 184.042 101.913V119.497C184.042 119.83 183.909 120.149 183.674 120.385C183.438 120.62 183.119 120.753 182.786 120.753Z" fill="#E0E0E0"/>
<path d="M538.334 64.9099H348.992V232.925H538.334V64.9099Z" fill="#E6E6E6"/>
<path d="M533.348 69.52H353.728V228.417H533.348V69.52Z" fill="#F0F0F0"/>
<path d="M395.879 69.52L353.728 228.065V153.572L375.984 69.52H395.879Z" fill="white"/>
<path d="M410.813 69.52L368.285 228.417H361.502L404.03 69.52H410.813Z" fill="white"/>
<path d="M533.348 169.786V195.17L524.744 228.416H517.962L533.348 169.786Z" fill="white"/>
<path d="M416.377 66.6692H413.35V231.971H416.377V66.6692Z" fill="#E6E6E6"/>
<path d="M475.02 66.6692H471.993V231.971H475.02V66.6692Z" fill="#E6E6E6"/>
<path d="M314 467.937C448.496 467.937 557.526 461.571 557.526 453.719C557.526 445.866 448.496 439.501 314 439.501C179.504 439.501 70.4741 445.866 70.4741 453.719C70.4741 461.571 179.504 467.937 314 467.937Z" fill="#F5F5F5"/>
<path d="M504.786 422.305C504.786 422.305 510.752 409.293 503.932 396.456C497.112 383.62 495.14 380.606 499.486 377.968C503.832 375.33 505.829 388.242 505.829 388.242C507.977 382.412 508.198 376.045 506.457 370.08C503.442 360.798 501.546 345.676 505.665 344.056C509.785 342.436 506.457 362.896 510.049 369.904C511.871 364.999 513.049 359.878 513.553 354.669C514.043 347.209 513.277 335.302 516.53 332.25C519.783 329.197 521.88 331.308 518.678 347.761C516.753 357.597 515.689 367.583 515.5 377.604C515.5 377.604 522.571 356.013 527.331 355.385C532.092 354.757 532.079 361.74 528.01 367.807C523.94 373.873 516.09 384.738 514.809 390.327C514.809 390.327 522.584 374.074 529.567 379.023C536.55 383.972 523.488 393.806 517.66 397.361C511.832 400.915 507.788 423.121 507.788 423.121L504.786 422.305Z" fill="#23CAFF"/>
<path opacity="0.2" d="M504.786 422.305C504.786 422.305 510.752 409.293 503.932 396.456C497.112 383.62 495.14 380.606 499.486 377.968C503.832 375.33 505.829 388.242 505.829 388.242C507.977 382.412 508.198 376.045 506.457 370.08C503.442 360.798 501.546 345.676 505.665 344.056C509.785 342.436 506.457 362.896 510.049 369.904C511.871 364.999 513.049 359.878 513.553 354.669C514.043 347.209 513.277 335.302 516.53 332.25C519.783 329.197 521.88 331.308 518.678 347.761C516.753 357.597 515.689 367.583 515.5 377.604C515.5 377.604 522.571 356.013 527.331 355.385C532.092 354.757 532.079 361.74 528.01 367.807C523.94 373.873 516.09 384.738 514.809 390.327C514.809 390.327 522.584 374.074 529.567 379.023C536.55 383.972 523.488 393.806 517.66 397.361C511.832 400.915 507.788 423.121 507.788 423.121L504.786 422.305Z" fill="black"/>
<path d="M509.496 427.642C509.496 427.642 503.681 414.542 510.652 401.807C517.623 389.071 519.632 386.081 515.324 383.394C511.016 380.706 508.856 393.567 508.856 393.567C506.774 387.714 506.629 381.347 508.441 375.405C511.569 366.161 513.654 351.064 509.547 349.381C505.44 347.698 508.529 368.221 504.862 375.167C503.097 370.237 501.978 365.099 501.533 359.881C501.131 352.421 502.048 340.526 498.82 337.424C495.593 334.322 493.482 336.407 496.497 352.91C498.302 362.766 499.243 372.759 499.31 382.778C499.31 382.778 492.49 361.087 487.755 360.396C483.02 359.705 482.932 366.676 486.926 372.806C490.92 378.935 498.632 389.912 499.888 395.514C499.888 395.514 492.352 379.186 485.268 384.034C478.184 388.882 491.171 398.905 496.949 402.548C502.727 406.19 506.52 428.459 506.52 428.459L509.496 427.642Z" fill="#23CAFF"/>
<path d="M482.694 418.299H530.685L526.804 452.65H486.575L482.694 418.299Z" fill="#263238"/>
<path d="M304.705 447.136V451.645C304.705 451.779 304.679 451.911 304.628 452.035C304.577 452.158 304.502 452.27 304.407 452.365C304.313 452.459 304.201 452.534 304.077 452.585C303.954 452.636 303.822 452.663 303.688 452.663H176.305C175.218 452.663 174.148 452.396 173.189 451.887C172.229 451.377 171.409 450.64 170.8 449.741C170.192 448.841 169.813 447.805 169.697 446.725C169.582 445.644 169.733 444.552 170.138 443.544L210.505 343.566L275.742 344.006L273.519 356.98L259.125 440.944C259.018 441.581 259.05 442.233 259.22 442.856C259.39 443.478 259.693 444.057 260.109 444.55C260.525 445.044 261.043 445.441 261.628 445.714C262.213 445.987 262.851 446.129 263.496 446.131H303.688C303.821 446.13 303.953 446.154 304.076 446.204C304.2 446.254 304.312 446.328 304.407 446.421C304.501 446.515 304.576 446.626 304.628 446.749C304.679 446.871 304.705 447.003 304.705 447.136Z" fill="#263238"/>
<path opacity="0.5" d="M304.705 447.136V451.645C304.705 451.779 304.679 451.911 304.628 452.035C304.577 452.158 304.502 452.27 304.407 452.365C304.313 452.459 304.201 452.534 304.077 452.585C303.954 452.636 303.822 452.663 303.688 452.663H176.305C175.218 452.663 174.148 452.396 173.189 451.887C172.229 451.377 171.409 450.64 170.8 449.741C170.192 448.841 169.813 447.805 169.697 446.725C169.582 445.644 169.733 444.552 170.138 443.544L195.17 381.56L210.505 343.566L275.742 344.006L273.519 356.98L267.239 393.492L259.113 440.944C259.005 441.581 259.037 442.233 259.207 442.856C259.377 443.478 259.681 444.057 260.097 444.55C260.512 445.044 261.031 445.441 261.616 445.714C262.201 445.987 262.838 446.129 263.483 446.131H303.676C303.81 446.128 303.943 446.152 304.068 446.201C304.193 446.25 304.306 446.323 304.402 446.417C304.498 446.51 304.575 446.622 304.627 446.746C304.679 446.869 304.705 447.002 304.705 447.136Z" fill="white"/>
<path opacity="0.2" d="M263.496 446.118H180.6C180.122 446.117 179.652 445.998 179.231 445.772C178.811 445.547 178.452 445.221 178.186 444.824C177.921 444.427 177.757 443.971 177.709 443.496C177.661 443.021 177.731 442.541 177.912 442.099L213.306 356.967H273.506L259.113 440.931C259.005 441.568 259.037 442.222 259.208 442.845C259.379 443.469 259.683 444.048 260.1 444.542C260.518 445.036 261.038 445.432 261.624 445.705C262.211 445.977 262.849 446.118 263.496 446.118Z" fill="black"/>
<path opacity="0.1" d="M275.742 343.994L273.519 356.968L267.251 393.48L195.169 381.561L210.505 343.554L275.742 343.994Z" fill="black"/>
<path d="M402.585 157.628H100.58C99.5657 157.628 98.5613 157.828 97.6241 158.216C96.6869 158.604 95.8354 159.173 95.1181 159.891C94.4009 160.608 93.8319 161.459 93.4437 162.397C93.0555 163.334 92.8557 164.338 92.8557 165.353V369.817C92.8557 371.865 93.6695 373.83 95.1181 375.279C96.5667 376.727 98.5315 377.541 100.58 377.541H402.585C404.635 377.541 406.601 376.728 408.052 375.28C409.502 373.831 410.319 371.867 410.322 369.817V165.353C410.319 163.303 409.502 161.338 408.052 159.89C406.601 158.442 404.635 157.628 402.585 157.628Z" fill="#263238"/>
<path opacity="0.6" d="M402.585 157.628H100.58C99.5657 157.628 98.5613 157.828 97.6241 158.216C96.6869 158.604 95.8354 159.173 95.1181 159.891C94.4009 160.608 93.8319 161.459 93.4437 162.397C93.0555 163.334 92.8557 164.338 92.8557 165.353V369.817C92.8557 371.865 93.6695 373.83 95.1181 375.279C96.5667 376.727 98.5315 377.541 100.58 377.541H402.585C404.635 377.541 406.601 376.728 408.052 375.28C409.502 373.831 410.319 371.867 410.322 369.817V165.353C410.319 163.303 409.502 161.338 408.052 159.89C406.601 158.442 404.635 157.628 402.585 157.628Z" fill="white"/>
<path opacity="0.2" d="M106.986 377.529H100.58C98.5337 377.529 96.5708 376.717 95.1226 375.271C93.6743 373.825 92.8591 371.863 92.8557 369.817V165.365C92.8541 164.35 93.0527 163.344 93.4401 162.405C93.8276 161.467 94.3963 160.614 95.1137 159.895C95.8311 159.177 96.6832 158.606 97.6212 158.217C98.5592 157.828 99.5647 157.628 100.58 157.628H106.986C105.967 157.623 104.958 157.82 104.015 158.207C103.073 158.593 102.216 159.163 101.495 159.882C100.773 160.601 100.201 161.456 99.8116 162.397C99.4218 163.338 99.222 164.347 99.2236 165.365V369.817C99.2236 370.834 99.4247 371.841 99.8154 372.78C100.206 373.719 100.779 374.571 101.5 375.288C102.222 376.005 103.078 376.572 104.019 376.956C104.961 377.341 105.969 377.535 106.986 377.529Z" fill="black"/>
<path d="M403.364 164.273H106.232V361.427H403.364V164.273Z" fill="#23CAFF"/>
<path opacity="0.4" d="M250.697 239.319C264.945 239.319 276.495 227.769 276.495 213.521C276.495 199.273 264.945 187.723 250.697 187.723C236.449 187.723 224.899 199.273 224.899 213.521C224.899 227.769 236.449 239.319 250.697 239.319Z" fill="white"/>
<path d="M244.543 209.601V207.24C244.543 206.114 244.99 205.034 245.787 204.238C246.583 203.442 247.663 202.995 248.788 202.995H252.556C253.118 202.988 253.676 203.093 254.196 203.303C254.717 203.514 255.191 203.825 255.591 204.22C255.99 204.615 256.308 205.085 256.524 205.604C256.741 206.122 256.852 206.678 256.852 207.24V209.652H259.603V207.24C259.599 205.386 258.861 203.608 257.55 202.297C256.239 200.986 254.461 200.247 252.607 200.244H248.839C246.984 200.247 245.207 200.986 243.896 202.297C242.584 203.608 241.846 205.386 241.843 207.24V209.652L244.543 209.601Z" fill="white"/>
<path d="M238.326 212.779V225.452C238.326 225.637 238.362 225.82 238.433 225.991C238.504 226.161 238.607 226.316 238.738 226.447C238.869 226.578 239.024 226.681 239.194 226.752C239.365 226.823 239.548 226.859 239.733 226.859H261.662C261.847 226.859 262.03 226.823 262.201 226.752C262.371 226.681 262.526 226.578 262.657 226.447C262.788 226.316 262.891 226.161 262.962 225.991C263.033 225.82 263.069 225.637 263.069 225.452V212.779C263.069 212.406 262.921 212.048 262.657 211.785C262.393 211.521 262.035 211.373 261.662 211.373H239.733C239.548 211.373 239.365 211.409 239.194 211.48C239.024 211.55 238.869 211.654 238.738 211.785C238.607 211.915 238.504 212.07 238.433 212.241C238.362 212.412 238.326 212.595 238.326 212.779ZM251.489 219.951V222.463H249.944V219.951C249.718 219.825 249.528 219.644 249.392 219.424C249.255 219.204 249.177 218.953 249.165 218.695C249.165 218.279 249.331 217.879 249.625 217.585C249.919 217.29 250.319 217.125 250.735 217.125C251.152 217.125 251.551 217.29 251.845 217.585C252.14 217.879 252.305 218.279 252.305 218.695C252.289 218.957 252.206 219.211 252.063 219.431C251.919 219.651 251.722 219.83 251.489 219.951Z" fill="white"/>
<path d="M206.42 265.555H182.053C180.603 265.555 179.428 266.73 179.428 268.18V292.547C179.428 293.996 180.603 295.172 182.053 295.172H206.42C207.869 295.172 209.045 293.996 209.045 292.547V268.18C209.045 266.73 207.869 265.555 206.42 265.555Z" fill="white"/>
<path d="M244.11 265.555H219.744C218.294 265.555 217.119 266.73 217.119 268.18V292.547C217.119 293.996 218.294 295.172 219.744 295.172H244.11C245.56 295.172 246.735 293.996 246.735 292.547V268.18C246.735 266.73 245.56 265.555 244.11 265.555Z" fill="white"/>
<path d="M281.801 265.555H257.435C255.985 265.555 254.81 266.73 254.81 268.18V292.546C254.81 293.996 255.985 295.171 257.435 295.171H281.801C283.251 295.171 284.427 293.996 284.427 292.546V268.18C284.427 266.73 283.251 265.555 281.801 265.555Z" fill="white"/>
<path d="M319.492 265.555H295.126C293.676 265.555 292.5 266.73 292.5 268.18V292.546C292.5 293.996 293.676 295.171 295.126 295.171H319.492C320.942 295.171 322.117 293.996 322.117 292.546V268.18C322.117 266.73 320.942 265.555 319.492 265.555Z" fill="white"/>
<path d="M200.189 280.739C200.189 286.19 197.099 289.116 192.653 289.116C191.265 289.166 189.89 288.84 188.672 288.174L189.475 286.378C190.408 286.918 191.476 287.179 192.553 287.132C195.793 287.132 197.853 285.097 197.853 281.09V280.525C197.317 281.227 196.615 281.785 195.811 282.148C195.006 282.512 194.124 282.671 193.243 282.61C190.066 282.61 187.78 280.714 187.78 277.774C187.78 274.835 190.292 272.75 193.419 272.75C197.765 272.763 200.189 275.639 200.189 280.739ZM197.376 277.699C197.376 276.054 196.12 274.609 193.608 274.609C193.168 274.556 192.722 274.597 192.299 274.728C191.876 274.86 191.486 275.079 191.154 275.372C190.821 275.665 190.555 276.025 190.372 276.428C190.189 276.831 190.093 277.269 190.091 277.712C190.091 279.596 191.485 280.801 193.733 280.801C195.981 280.801 197.376 279.458 197.376 277.699Z" fill="#263238"/>
<path d="M225.272 280.941C225.272 275.728 228.06 272.764 231.803 272.764C235.546 272.764 238.322 275.728 238.322 280.941C238.322 286.153 235.533 289.117 231.803 289.117C228.073 289.117 225.272 286.153 225.272 280.941ZM236.036 280.941C236.036 276.846 234.303 274.799 231.803 274.799C229.304 274.799 227.558 276.846 227.558 280.941C227.558 285.035 229.291 287.083 231.803 287.083C234.315 287.083 236.036 285.035 236.036 280.941Z" fill="#263238"/>
<path d="M275.136 286.944V288.891H263.643V287.384L270.149 281.104C271.845 279.458 272.159 278.454 272.159 277.449C272.159 275.803 271.003 274.799 268.755 274.799C267.987 274.756 267.22 274.89 266.513 275.19C265.805 275.491 265.176 275.95 264.673 276.532L263.116 275.188C263.85 274.375 264.757 273.736 265.769 273.316C266.781 272.897 267.874 272.708 268.969 272.764C272.297 272.764 274.445 274.472 274.445 277.21C274.445 278.768 273.993 280.162 271.82 282.234L266.934 286.932L275.136 286.944Z" fill="#263238"/>
<path d="M308.796 272.94V288.891H306.535V274.937H302.917V272.94H308.796Z" fill="#263238"/>
<g opacity="0.6">
<path d="M222.6 253.449V254.014H218.242V247.847H222.462V248.412H218.895V250.61H222.073V251.2H218.895V253.486L222.6 253.449Z" fill="white"/>
<path d="M228.252 251.325V254.013H227.624V251.388C227.662 251.193 227.652 250.992 227.597 250.801C227.542 250.611 227.442 250.436 227.306 250.291C227.17 250.146 227.001 250.036 226.814 249.969C226.627 249.902 226.427 249.881 226.23 249.906C226.009 249.89 225.787 249.923 225.58 250.002C225.373 250.081 225.185 250.205 225.031 250.364C224.877 250.523 224.759 250.714 224.686 250.923C224.614 251.133 224.588 251.356 224.61 251.576V254.013H223.995V249.378H224.585V250.233C224.774 249.943 225.036 249.709 225.345 249.555C225.654 249.4 225.999 249.331 226.343 249.353C226.605 249.331 226.869 249.367 227.115 249.459C227.361 249.552 227.583 249.697 227.766 249.886C227.949 250.075 228.087 250.302 228.171 250.551C228.256 250.8 228.283 251.064 228.252 251.325Z" fill="white"/>
<path d="M232.359 253.711C232.083 253.935 231.735 254.051 231.38 254.038C231.199 254.053 231.017 254.029 230.846 253.967C230.676 253.905 230.521 253.806 230.392 253.679C230.263 253.551 230.163 253.397 230.1 253.227C230.036 253.057 230.01 252.875 230.023 252.694V249.943H229.194V249.416H230.023V248.411H230.651V249.416H232.058V249.943H230.651V252.707C230.651 253.259 230.928 253.548 231.443 253.548C231.692 253.556 231.937 253.476 232.133 253.322L232.359 253.711Z" fill="white"/>
<path d="M237.384 251.89H233.515C233.544 252.344 233.752 252.768 234.094 253.07C234.435 253.371 234.882 253.525 235.337 253.497C235.603 253.506 235.868 253.456 236.113 253.352C236.358 253.248 236.577 253.092 236.756 252.894L237.108 253.296C236.765 253.618 236.339 253.837 235.878 253.929C235.417 254.02 234.94 253.981 234.5 253.815C234.06 253.648 233.676 253.362 233.391 252.989C233.106 252.615 232.932 252.169 232.887 251.701C232.87 251.396 232.916 251.09 233.022 250.803C233.129 250.516 233.293 250.254 233.505 250.033C233.717 249.813 233.973 249.639 234.256 249.522C234.538 249.404 234.842 249.347 235.148 249.352C235.453 249.347 235.756 249.404 236.037 249.522C236.319 249.639 236.573 249.814 236.783 250.035C236.993 250.256 237.155 250.518 237.259 250.805C237.362 251.092 237.405 251.397 237.384 251.701C237.384 251.701 237.384 251.814 237.384 251.89ZM233.515 251.425H236.794C236.758 251.015 236.569 250.633 236.266 250.355C235.963 250.077 235.566 249.923 235.154 249.923C234.743 249.923 234.346 250.077 234.043 250.355C233.74 250.633 233.551 251.015 233.515 251.425Z" fill="white"/>
<path d="M240.988 249.354V249.944H240.838C240.617 249.932 240.396 249.97 240.192 250.054C239.987 250.138 239.804 250.266 239.655 250.429C239.506 250.593 239.395 250.787 239.33 250.999C239.265 251.21 239.248 251.433 239.28 251.652V254.013H238.64V249.379H239.243V250.283C239.404 249.969 239.658 249.711 239.97 249.545C240.282 249.379 240.637 249.312 240.988 249.354Z" fill="white"/>
<path d="M248.373 249.378L246.062 254.566C245.673 255.47 245.183 255.759 244.517 255.759C244.312 255.766 244.107 255.732 243.915 255.659C243.723 255.586 243.548 255.474 243.4 255.332L243.689 254.867C243.796 254.982 243.926 255.073 244.071 255.134C244.216 255.194 244.373 255.223 244.53 255.219C244.945 255.219 245.221 255.03 245.485 254.453L245.686 254.001L243.663 249.378H244.317L246.05 253.31L247.796 249.378H248.373Z" fill="white"/>
<path d="M248.688 251.701C248.685 251.234 248.821 250.776 249.079 250.386C249.337 249.996 249.705 249.692 250.137 249.511C250.568 249.33 251.043 249.282 251.502 249.371C251.961 249.461 252.383 249.685 252.714 250.015C253.046 250.345 253.272 250.765 253.364 251.224C253.456 251.682 253.41 252.157 253.232 252.59C253.053 253.022 252.751 253.391 252.362 253.651C251.973 253.911 251.516 254.05 251.049 254.05C250.737 254.062 250.425 254.01 250.134 253.897C249.843 253.783 249.578 253.611 249.356 253.39C249.135 253.17 248.961 252.906 248.846 252.616C248.731 252.325 248.677 252.014 248.688 251.701ZM252.757 251.701C252.742 251.364 252.629 251.039 252.43 250.766C252.232 250.493 251.957 250.284 251.641 250.165C251.325 250.047 250.981 250.024 250.652 250.1C250.323 250.176 250.024 250.346 249.791 250.591C249.558 250.836 249.403 251.143 249.344 251.476C249.285 251.808 249.325 252.15 249.459 252.46C249.593 252.77 249.815 253.034 250.098 253.218C250.381 253.402 250.711 253.5 251.049 253.498C251.279 253.496 251.506 253.448 251.716 253.356C251.927 253.263 252.116 253.129 252.273 252.961C252.429 252.792 252.549 252.594 252.626 252.377C252.703 252.161 252.735 251.931 252.719 251.701H252.757Z" fill="white"/>
<path d="M258.798 249.378V254.013H258.208V253.159C258.036 253.445 257.79 253.678 257.496 253.835C257.201 253.992 256.87 254.067 256.537 254.051C256.272 254.077 256.004 254.043 255.753 253.952C255.502 253.861 255.275 253.715 255.088 253.525C254.902 253.334 254.76 253.105 254.674 252.852C254.588 252.6 254.559 252.331 254.59 252.066V249.378H255.206V252.003C255.169 252.198 255.178 252.4 255.233 252.59C255.289 252.781 255.389 252.956 255.525 253.1C255.661 253.245 255.829 253.355 256.016 253.422C256.203 253.489 256.403 253.511 256.6 253.486C256.818 253.498 257.037 253.463 257.24 253.382C257.443 253.301 257.626 253.176 257.775 253.017C257.925 252.858 258.038 252.668 258.106 252.46C258.174 252.252 258.196 252.032 258.17 251.815V249.378H258.798Z" fill="white"/>
<path d="M262.881 249.354V249.944H262.73C262.509 249.933 262.288 249.97 262.084 250.054C261.879 250.138 261.696 250.266 261.547 250.43C261.398 250.593 261.287 250.788 261.222 250.999C261.158 251.21 261.141 251.434 261.172 251.652V254.014H260.544V249.379H261.147V250.283C261.308 249.971 261.56 249.715 261.869 249.549C262.179 249.383 262.532 249.315 262.881 249.354Z" fill="white"/>
<path d="M265.957 250.936C265.935 250.291 266.106 249.653 266.448 249.106C266.79 248.558 267.288 248.125 267.877 247.863C268.467 247.6 269.122 247.519 269.758 247.631C270.394 247.743 270.982 248.043 271.446 248.491C271.911 248.939 272.231 249.516 272.365 250.148C272.5 250.779 272.442 251.437 272.201 252.035C271.959 252.634 271.544 253.147 271.009 253.508C270.474 253.87 269.843 254.063 269.198 254.063C268.777 254.08 268.358 254.012 267.964 253.862C267.571 253.712 267.212 253.484 266.909 253.192C266.606 252.9 266.366 252.549 266.202 252.161C266.039 251.774 265.955 251.357 265.957 250.936ZM271.773 250.936C271.787 250.418 271.647 249.908 271.368 249.471C271.09 249.034 270.686 248.691 270.211 248.486C269.735 248.28 269.209 248.223 268.7 248.32C268.191 248.418 267.723 248.666 267.357 249.032C266.99 249.398 266.742 249.866 266.645 250.375C266.548 250.884 266.605 251.41 266.81 251.886C267.015 252.362 267.359 252.765 267.795 253.043C268.232 253.322 268.743 253.463 269.261 253.448C269.927 253.448 270.566 253.183 271.037 252.712C271.508 252.241 271.773 251.602 271.773 250.936Z" fill="white"/>
<path d="M274.988 248.412H272.828V247.847H277.852V248.412H275.679V254.014H275.026L274.988 248.412Z" fill="white"/>
<path d="M283.667 249.943C283.667 251.199 282.713 252.041 281.155 252.041H279.51V253.988H278.832V247.821H281.13C282.713 247.846 283.667 248.687 283.667 249.943ZM283.014 249.943C283.014 248.951 282.361 248.386 281.13 248.386H279.497V251.463H281.13C282.361 251.488 283.014 250.935 283.014 249.943Z" fill="white"/>
</g>
<g opacity="0.6">
<path d="M226.268 306.326L226.519 305.836C227.083 306.326 227.807 306.589 228.554 306.577C229.697 306.577 230.199 306.1 230.199 305.484C230.199 303.801 226.431 304.831 226.431 302.558C226.431 301.654 227.134 300.875 228.692 300.875C229.367 300.866 230.031 301.053 230.601 301.415L230.388 301.93C229.881 301.607 229.293 301.432 228.692 301.427C227.574 301.427 227.072 301.93 227.072 302.545C227.072 304.228 230.84 303.211 230.84 305.447C230.84 306.364 230.124 307.13 228.554 307.13C227.717 307.161 226.9 306.874 226.268 306.326Z" fill="white"/>
<path d="M236.127 304.958H232.259C232.288 305.412 232.496 305.836 232.837 306.138C233.179 306.439 233.625 306.593 234.08 306.565C234.346 306.574 234.611 306.525 234.856 306.42C235.101 306.316 235.321 306.16 235.499 305.963L235.851 306.364C235.63 306.617 235.355 306.817 235.046 306.95C234.738 307.083 234.403 307.144 234.067 307.131C233.749 307.15 233.43 307.103 233.13 306.992C232.831 306.881 232.558 306.709 232.329 306.487C232.1 306.265 231.919 305.997 231.799 305.702C231.679 305.406 231.621 305.088 231.631 304.769C231.615 304.464 231.663 304.159 231.77 303.873C231.877 303.587 232.041 303.326 232.253 303.106C232.465 302.886 232.719 302.711 233.001 302.593C233.283 302.476 233.586 302.417 233.892 302.421C234.198 302.413 234.502 302.469 234.785 302.586C235.068 302.702 235.323 302.877 235.535 303.098C235.747 303.319 235.91 303.582 236.014 303.87C236.118 304.158 236.161 304.464 236.14 304.769C236.14 304.769 236.127 304.895 236.127 304.958ZM232.259 304.493H235.537C235.501 304.083 235.313 303.701 235.009 303.423C234.706 303.145 234.309 302.991 233.898 302.991C233.486 302.991 233.09 303.145 232.786 303.423C232.483 303.701 232.295 304.083 232.259 304.493Z" fill="white"/>
<path d="M241.691 304.391V307.079H241.076V304.454C241.111 304.26 241.1 304.06 241.043 303.871C240.987 303.682 240.887 303.509 240.751 303.366C240.615 303.223 240.448 303.114 240.262 303.048C240.076 302.981 239.877 302.96 239.682 302.985C239.46 302.969 239.238 303.002 239.031 303.081C238.824 303.16 238.637 303.283 238.482 303.442C238.328 303.602 238.21 303.793 238.137 304.002C238.065 304.212 238.039 304.435 238.061 304.655V307.079H237.383V302.457H237.986V303.311C238.173 303.02 238.435 302.783 238.744 302.626C239.053 302.47 239.398 302.398 239.744 302.419C240.009 302.391 240.277 302.423 240.528 302.512C240.779 302.602 241.006 302.747 241.193 302.936C241.38 303.126 241.522 303.355 241.608 303.607C241.695 303.859 241.723 304.127 241.691 304.391Z" fill="white"/>
<path d="M247.632 300.549V307.08H247.03V306.163C246.846 306.469 246.583 306.72 246.27 306.89C245.956 307.06 245.603 307.143 245.246 307.13C244.651 307.087 244.095 306.82 243.689 306.383C243.283 305.946 243.057 305.371 243.057 304.775C243.057 304.179 243.283 303.604 243.689 303.167C244.095 302.73 244.651 302.463 245.246 302.42C245.593 302.408 245.938 302.486 246.246 302.646C246.554 302.807 246.816 303.045 247.004 303.337V300.549H247.632ZM247.017 304.769C247.002 304.432 246.889 304.107 246.691 303.834C246.493 303.561 246.22 303.352 245.904 303.234C245.589 303.115 245.245 303.091 244.917 303.166C244.588 303.241 244.289 303.41 244.055 303.654C243.822 303.897 243.666 304.204 243.605 304.535C243.545 304.867 243.583 305.209 243.715 305.519C243.847 305.829 244.067 306.093 244.349 306.279C244.63 306.465 244.959 306.564 245.296 306.565C245.53 306.569 245.762 306.524 245.977 306.434C246.193 306.345 246.387 306.211 246.549 306.042C246.71 305.874 246.835 305.674 246.916 305.454C246.996 305.235 247.031 305.002 247.017 304.769Z" fill="white"/>
<path d="M255.168 304.217V307.08H254.565V306.364C254.391 306.622 254.151 306.828 253.871 306.963C253.591 307.097 253.28 307.155 252.97 307.13C251.928 307.13 251.287 306.578 251.287 305.774C251.287 304.97 251.739 304.518 253.071 304.518H254.54V304.242C254.558 304.072 254.538 303.901 254.481 303.741C254.424 303.58 254.332 303.435 254.212 303.314C254.091 303.194 253.946 303.102 253.785 303.045C253.625 302.988 253.453 302.968 253.284 302.986C252.719 302.977 252.17 303.173 251.739 303.538L251.463 303.074C251.993 302.65 252.656 302.428 253.334 302.446C253.577 302.417 253.822 302.442 254.054 302.52C254.285 302.598 254.496 302.726 254.672 302.896C254.847 303.065 254.983 303.272 255.069 303.5C255.154 303.729 255.188 303.973 255.168 304.217ZM254.54 305.686V304.932H253.083C252.191 304.932 251.903 305.284 251.903 305.761C251.903 306.239 252.33 306.628 253.071 306.628C253.384 306.649 253.696 306.568 253.96 306.399C254.225 306.229 254.428 305.98 254.54 305.686Z" fill="white"/>
<path d="M261.16 302.458V306.465C261.209 306.78 261.183 307.102 261.085 307.404C260.986 307.707 260.817 307.983 260.592 308.208C260.367 308.433 260.091 308.602 259.788 308.701C259.485 308.8 259.164 308.825 258.849 308.776C258.068 308.806 257.302 308.557 256.688 308.073L257.002 307.595C257.517 308.011 258.162 308.234 258.824 308.223C260.004 308.223 260.532 307.696 260.532 306.553V305.962C260.333 306.252 260.064 306.486 259.75 306.642C259.435 306.798 259.086 306.871 258.736 306.854C258.427 306.877 258.117 306.837 257.825 306.734C257.533 306.632 257.265 306.471 257.039 306.26C256.812 306.05 256.631 305.795 256.507 305.511C256.383 305.228 256.32 304.922 256.32 304.612C256.32 304.303 256.383 303.997 256.507 303.713C256.631 303.43 256.812 303.175 257.039 302.964C257.265 302.754 257.533 302.592 257.825 302.49C258.117 302.388 258.427 302.347 258.736 302.37C259.093 302.353 259.448 302.429 259.767 302.589C260.086 302.75 260.358 302.99 260.557 303.287V302.408L261.16 302.458ZM260.557 304.656C260.569 304.306 260.477 303.96 260.292 303.663C260.106 303.365 259.836 303.13 259.516 302.988C259.196 302.845 258.841 302.801 258.496 302.861C258.15 302.922 257.831 303.084 257.579 303.328C257.327 303.571 257.153 303.884 257.08 304.227C257.007 304.569 257.038 304.926 257.169 305.251C257.3 305.576 257.525 305.854 257.815 306.051C258.106 306.247 258.448 306.352 258.799 306.352C259.028 306.366 259.257 306.332 259.473 306.253C259.688 306.173 259.885 306.05 260.05 305.89C260.216 305.731 260.346 305.539 260.433 305.327C260.52 305.114 260.563 304.886 260.557 304.656Z" fill="white"/>
<path d="M266.397 304.217V307.08H265.807V306.365C265.632 306.621 265.392 306.827 265.112 306.961C264.832 307.096 264.522 307.154 264.212 307.131C263.157 307.131 262.516 306.578 262.516 305.774C262.516 304.97 262.981 304.518 264.312 304.518H265.769V304.242C265.769 303.451 265.33 302.986 264.513 302.986C263.953 302.979 263.408 303.175 262.981 303.539L262.692 303.074C263.227 302.65 263.894 302.428 264.576 302.446C264.818 302.419 265.062 302.446 265.292 302.525C265.521 302.604 265.731 302.732 265.905 302.902C266.079 303.071 266.213 303.277 266.298 303.504C266.384 303.731 266.417 303.975 266.397 304.217ZM265.769 305.686V304.933H264.325C263.421 304.933 263.132 305.284 263.132 305.762C263.132 306.239 263.571 306.628 264.312 306.628C264.625 306.65 264.935 306.57 265.198 306.4C265.461 306.231 265.661 305.98 265.769 305.686Z" fill="white"/>
<path d="M267.954 300.988C267.972 300.879 268.028 300.781 268.112 300.71C268.196 300.638 268.303 300.599 268.413 300.599C268.523 300.599 268.629 300.638 268.713 300.71C268.797 300.781 268.853 300.879 268.871 300.988C268.853 301.097 268.797 301.195 268.713 301.266C268.629 301.337 268.523 301.377 268.413 301.377C268.303 301.377 268.196 301.337 268.112 301.266C268.028 301.195 267.972 301.097 267.954 300.988ZM268.093 302.457H268.721V307.08H268.093V302.457Z" fill="white"/>
<path d="M274.711 304.392V307.08H274.096V304.455C274.131 304.261 274.12 304.061 274.063 303.872C274.007 303.683 273.907 303.51 273.771 303.367C273.635 303.224 273.468 303.115 273.282 303.048C273.096 302.982 272.897 302.961 272.702 302.985C272.481 302.97 272.259 303.002 272.051 303.081C271.844 303.161 271.657 303.284 271.502 303.443C271.348 303.602 271.23 303.793 271.158 304.003C271.085 304.212 271.059 304.435 271.082 304.656V307.08H270.466V302.458H271.056V303.312C271.244 303.02 271.505 302.784 271.814 302.627C272.123 302.47 272.469 302.399 272.815 302.42C273.076 302.4 273.338 302.438 273.582 302.531C273.827 302.624 274.048 302.77 274.229 302.958C274.41 303.147 274.548 303.373 274.631 303.621C274.714 303.869 274.742 304.132 274.711 304.392Z" fill="white"/>
</g>
<path opacity="0.4" d="M285.689 338.48H215.692C212.926 338.477 210.275 337.375 208.32 335.418C206.366 333.461 205.268 330.809 205.268 328.043C205.268 325.277 206.366 322.624 208.32 320.667C210.275 318.71 212.926 317.609 215.692 317.605H285.689C288.457 317.605 291.112 318.705 293.07 320.662C295.027 322.62 296.127 325.274 296.127 328.043C296.127 330.811 295.027 333.466 293.07 335.423C291.112 337.38 288.457 338.48 285.689 338.48Z" fill="white"/>
<path d="M223.392 327.515C223.386 327.026 223.481 326.541 223.67 326.09C223.86 325.639 224.14 325.232 224.493 324.894C224.846 324.556 225.266 324.294 225.724 324.125C226.183 323.956 226.672 323.883 227.16 323.91C227.659 323.892 228.156 323.982 228.618 324.173C229.079 324.363 229.494 324.651 229.835 325.015L229.182 325.643C228.93 325.372 228.622 325.157 228.28 325.014C227.937 324.871 227.569 324.803 227.198 324.815C226.752 324.819 226.314 324.933 225.923 325.148C225.532 325.363 225.201 325.671 224.958 326.045C224.715 326.42 224.569 326.848 224.532 327.293C224.496 327.737 224.57 328.184 224.748 328.593C224.926 329.001 225.202 329.36 225.552 329.636C225.903 329.912 226.316 330.097 226.755 330.174C227.194 330.252 227.646 330.219 228.069 330.079C228.493 329.94 228.875 329.697 229.182 329.374L229.835 330.002C229.493 330.368 229.075 330.656 228.611 330.846C228.148 331.037 227.649 331.126 227.148 331.107C226.661 331.135 226.174 331.062 225.717 330.893C225.259 330.725 224.842 330.464 224.489 330.127C224.137 329.79 223.858 329.384 223.669 328.935C223.48 328.486 223.386 328.002 223.392 327.515Z" fill="white"/>
<path d="M230.513 327.515C230.478 326.764 230.669 326.019 231.061 325.376C231.453 324.734 232.029 324.224 232.713 323.911C233.398 323.599 234.161 323.499 234.903 323.624C235.645 323.749 236.333 324.093 236.877 324.612C237.422 325.132 237.799 325.802 237.959 326.537C238.119 327.273 238.055 328.039 237.776 328.738C237.497 329.437 237.015 330.036 236.392 330.458C235.769 330.881 235.034 331.107 234.281 331.108C233.795 331.133 233.308 331.059 232.851 330.89C232.394 330.721 231.976 330.46 231.623 330.124C231.27 329.787 230.99 329.383 230.799 328.934C230.608 328.486 230.511 328.003 230.513 327.515ZM236.982 327.515C236.989 326.972 236.835 326.438 236.538 325.983C236.241 325.527 235.815 325.17 235.315 324.958C234.815 324.745 234.262 324.686 233.728 324.789C233.194 324.891 232.703 325.15 232.317 325.533C231.931 325.915 231.667 326.404 231.56 326.937C231.452 327.47 231.506 328.023 231.714 328.525C231.922 329.028 232.275 329.457 232.728 329.758C233.181 330.059 233.713 330.218 234.256 330.216C234.615 330.228 234.973 330.166 235.308 330.035C235.642 329.904 235.946 329.706 236.201 329.453C236.457 329.201 236.657 328.898 236.792 328.565C236.926 328.232 236.991 327.875 236.982 327.515Z" fill="white"/>
<path d="M245.573 324.048V331.082H244.744L240.524 325.832V331.082H239.519V324.048H240.348L244.568 329.286V324.048H245.573Z" fill="white"/>
<path d="M249.077 324.864H246.666V324.048H252.456V324.915H250.07V331.082H249.077V324.864Z" fill="white"/>
<path d="M253.573 324.048H254.578V331.082H253.573V324.048Z" fill="white"/>
<path d="M262.742 324.048V331.082H261.913L257.693 325.832V331.082H256.688V324.048H257.48L261.7 329.286V324.048H262.742Z" fill="white"/>
<path d="M264.79 327.992V324.048H265.795V328.004C265.795 329.562 266.511 330.265 267.779 330.265C269.048 330.265 269.764 329.562 269.764 328.004V324.048H270.743V328.042C270.743 328.832 270.43 329.589 269.872 330.147C269.313 330.705 268.556 331.019 267.767 331.019C266.977 331.019 266.22 330.705 265.662 330.147C265.104 329.589 264.79 328.832 264.79 328.042V327.992Z" fill="white"/>
<path d="M277.902 330.152V331.031H272.803V324.048H277.827V324.915H273.808V327.075H277.325V327.929H273.808V330.202L277.902 330.152Z" fill="white"/>
<path opacity="0.1" d="M372.391 165.189C331.307 206.348 225.791 297.961 106.232 291.178V165.189H372.391Z" fill="white"/>
<path opacity="0.1" d="M403.351 240.838V362.356H224.472C231.33 337.813 245.045 304.203 271.647 280.188C319.501 236.982 375.041 237.107 403.351 240.838Z" fill="white"/>
<path d="M441.145 145.81L445.315 164.223L449.485 145.81H441.145Z" fill="#23CAFF"/>
<path opacity="0.7" d="M441.145 145.81L445.315 164.223L449.485 145.81H441.145Z" fill="white"/>
<path d="M491.988 93.6738H398.655C392.696 93.6738 387.865 98.5042 387.865 104.463V139.103C387.865 145.062 392.696 149.892 398.655 149.892H491.988C497.946 149.892 502.777 145.062 502.777 139.103V104.463C502.777 98.5042 497.946 93.6738 491.988 93.6738Z" fill="#23CAFF"/>
<path opacity="0.7" d="M491.988 93.6738H398.655C392.696 93.6738 387.865 98.5042 387.865 104.463V139.103C387.865 145.062 392.696 149.892 398.655 149.892H491.988C497.946 149.892 502.777 145.062 502.777 139.103V104.463C502.777 98.5042 497.946 93.6738 491.988 93.6738Z" fill="white"/>
<g opacity="0.5">
<path d="M410.813 114.297V116.721H409.821V114.297L407.032 109.726H408.112L410.361 113.494L412.621 109.726H413.614L410.813 114.297Z" fill="#263238"/>
<path d="M413.388 114.071C413.378 113.52 413.532 112.978 413.831 112.515C414.13 112.052 414.56 111.688 415.066 111.471C415.572 111.253 416.132 111.191 416.674 111.292C417.215 111.393 417.715 111.654 418.108 112.04C418.501 112.426 418.771 112.92 418.882 113.46C418.993 114 418.941 114.561 418.733 115.071C418.524 115.581 418.168 116.017 417.711 116.325C417.253 116.632 416.715 116.796 416.164 116.796C415.799 116.814 415.434 116.755 415.093 116.625C414.752 116.495 414.441 116.296 414.18 116.04C413.919 115.784 413.715 115.477 413.578 115.138C413.442 114.799 413.377 114.436 413.388 114.071ZM417.947 114.071C417.968 113.823 417.937 113.574 417.857 113.339C417.776 113.104 417.648 112.888 417.479 112.705C417.311 112.522 417.107 112.376 416.879 112.276C416.652 112.176 416.406 112.124 416.157 112.124C415.909 112.124 415.663 112.176 415.435 112.276C415.208 112.376 415.004 112.522 414.835 112.705C414.667 112.888 414.539 113.104 414.458 113.339C414.378 113.574 414.347 113.823 414.368 114.071C414.347 114.318 414.378 114.568 414.458 114.803C414.539 115.038 414.667 115.254 414.835 115.436C415.004 115.619 415.208 115.765 415.435 115.865C415.663 115.965 415.909 116.017 416.157 116.017C416.406 116.017 416.652 115.965 416.879 115.865C417.107 115.765 417.311 115.619 417.479 115.436C417.648 115.254 417.776 115.038 417.857 114.803C417.937 114.568 417.968 114.318 417.947 114.071Z" fill="#263238"/>
<path d="M425.219 111.409V116.735H424.315V115.931C424.106 116.211 423.832 116.436 423.517 116.587C423.202 116.738 422.855 116.81 422.506 116.798C422.194 116.83 421.879 116.791 421.584 116.686C421.289 116.58 421.021 116.409 420.8 116.186C420.58 115.963 420.412 115.694 420.31 115.397C420.207 115.101 420.172 114.786 420.208 114.474V111.409H421.175V114.374C421.175 115.416 421.702 115.931 422.619 115.931C422.849 115.946 423.079 115.91 423.293 115.825C423.508 115.74 423.7 115.609 423.858 115.441C424.015 115.273 424.133 115.072 424.203 114.852C424.274 114.633 424.295 114.401 424.264 114.173V111.409H425.219Z" fill="#263238"/>
<path d="M429.929 111.358V112.3H429.703C429.468 112.285 429.234 112.322 429.015 112.409C428.797 112.495 428.601 112.629 428.441 112.801C428.281 112.973 428.161 113.179 428.091 113.403C428.02 113.627 428 113.863 428.032 114.096V116.746H427.04V111.408H427.969V112.313C428.171 111.983 428.462 111.718 428.81 111.549C429.157 111.38 429.545 111.313 429.929 111.358Z" fill="#263238"/>
<path d="M433.458 113.217C433.426 112.466 433.619 111.722 434.013 111.081C434.406 110.44 434.983 109.932 435.668 109.622C436.353 109.311 437.115 109.213 437.856 109.339C438.598 109.466 439.284 109.811 439.828 110.331C440.371 110.851 440.747 111.521 440.906 112.256C441.065 112.991 441 113.757 440.721 114.455C440.441 115.153 439.959 115.752 439.336 116.174C438.713 116.595 437.979 116.821 437.226 116.822C436.738 116.849 436.25 116.776 435.791 116.607C435.332 116.438 434.913 116.176 434.559 115.838C434.206 115.5 433.926 115.093 433.737 114.642C433.547 114.191 433.453 113.706 433.458 113.217ZM439.927 113.217C439.934 112.673 439.78 112.14 439.483 111.684C439.186 111.229 438.76 110.872 438.26 110.659C437.76 110.447 437.207 110.388 436.674 110.49C436.14 110.593 435.648 110.852 435.262 111.234C434.876 111.617 434.612 112.106 434.505 112.639C434.398 113.172 434.451 113.725 434.659 114.227C434.867 114.729 435.22 115.158 435.673 115.459C436.126 115.76 436.658 115.92 437.201 115.917C437.56 115.929 437.918 115.868 438.253 115.737C438.587 115.606 438.891 115.408 439.147 115.155C439.402 114.902 439.603 114.6 439.737 114.266C439.871 113.933 439.936 113.576 439.927 113.217Z" fill="#263238"/>
<path d="M443.77 110.529H441.358V109.662H447.136V110.529H444.724V116.683H443.732L443.77 110.529Z" fill="#263238"/>
<path d="M453.944 112.162C453.944 113.682 452.838 114.612 451.005 114.612H449.271V116.734H448.267V109.713H451.005C452.838 109.713 453.944 110.63 453.944 112.162ZM452.939 112.162C452.939 111.158 452.261 110.58 450.98 110.58H449.271V113.732H450.98C452.261 113.732 452.939 113.167 452.939 112.162Z" fill="#263238"/>
<path d="M457.649 113.217C457.683 112.49 457.926 111.789 458.35 111.197C458.774 110.606 459.36 110.15 460.037 109.884C460.715 109.618 461.454 109.554 462.167 109.7C462.88 109.846 463.536 110.195 464.055 110.705L463.401 111.345C463.15 111.072 462.842 110.856 462.5 110.71C462.158 110.565 461.789 110.495 461.417 110.504C460.701 110.504 460.014 110.788 459.507 111.295C459.001 111.801 458.717 112.488 458.717 113.204C458.717 113.921 459.001 114.607 459.507 115.114C460.014 115.62 460.701 115.905 461.417 115.905C461.789 115.914 462.158 115.843 462.5 115.698C462.842 115.553 463.15 115.337 463.401 115.063L464.055 115.704C463.536 116.214 462.88 116.563 462.167 116.709C461.454 116.854 460.715 116.79 460.037 116.525C459.36 116.259 458.774 115.803 458.35 115.212C457.926 114.62 457.683 113.919 457.649 113.192V113.217Z" fill="#263238"/>
<path d="M464.633 114.071C464.623 113.52 464.777 112.978 465.076 112.515C465.375 112.052 465.805 111.688 466.311 111.471C466.817 111.253 467.377 111.191 467.919 111.292C468.46 111.393 468.96 111.654 469.353 112.04C469.746 112.426 470.015 112.92 470.127 113.46C470.238 114 470.186 114.561 469.977 115.071C469.769 115.581 469.413 116.017 468.956 116.325C468.498 116.632 467.96 116.796 467.409 116.796C467.044 116.814 466.679 116.755 466.338 116.625C465.996 116.495 465.686 116.296 465.425 116.04C465.164 115.784 464.959 115.477 464.823 115.138C464.687 114.799 464.622 114.436 464.633 114.071ZM469.192 114.071C469.213 113.823 469.182 113.574 469.101 113.339C469.021 113.104 468.892 112.888 468.724 112.705C468.556 112.522 468.352 112.376 468.124 112.276C467.897 112.176 467.651 112.124 467.402 112.124C467.154 112.124 466.908 112.176 466.68 112.276C466.453 112.376 466.248 112.522 466.08 112.705C465.912 112.888 465.784 113.104 465.703 113.339C465.623 113.574 465.592 113.823 465.612 114.071C465.592 114.318 465.623 114.568 465.703 114.803C465.784 115.038 465.912 115.254 466.08 115.436C466.248 115.619 466.453 115.765 466.68 115.865C466.908 115.965 467.154 116.017 467.402 116.017C467.651 116.017 467.897 115.965 468.124 115.865C468.352 115.765 468.556 115.619 468.724 115.436C468.892 115.254 469.021 115.038 469.101 114.803C469.182 114.568 469.213 114.318 469.192 114.071Z" fill="#263238"/>
<path d="M476.527 109.273V116.722H475.61V115.88C475.391 116.173 475.103 116.408 474.773 116.566C474.443 116.723 474.079 116.798 473.713 116.784C473.024 116.737 472.378 116.431 471.907 115.926C471.435 115.421 471.173 114.756 471.173 114.065C471.173 113.374 471.435 112.709 471.907 112.204C472.378 111.7 473.024 111.393 473.713 111.346C474.068 111.335 474.421 111.406 474.743 111.555C475.066 111.703 475.349 111.924 475.572 112.2V109.273H476.527ZM475.572 114.059C475.555 113.707 475.435 113.369 475.227 113.085C475.019 112.801 474.732 112.585 474.402 112.462C474.072 112.34 473.713 112.318 473.37 112.398C473.028 112.478 472.716 112.656 472.474 112.912C472.232 113.168 472.07 113.489 472.009 113.835C471.948 114.182 471.991 114.539 472.131 114.862C472.271 115.184 472.502 115.459 472.797 115.651C473.092 115.843 473.437 115.945 473.789 115.943C474.032 115.949 474.274 115.904 474.499 115.81C474.724 115.717 474.927 115.578 475.095 115.402C475.263 115.226 475.392 115.016 475.474 114.787C475.556 114.558 475.59 114.314 475.572 114.071V114.059Z" fill="#263238"/>
<path d="M483.146 114.398H478.838C478.898 114.854 479.13 115.27 479.488 115.56C479.846 115.85 480.301 115.991 480.76 115.955C481.046 115.965 481.332 115.913 481.596 115.803C481.861 115.692 482.098 115.526 482.292 115.314L482.832 115.93C482.439 116.329 481.938 116.605 481.391 116.726C480.844 116.846 480.273 116.806 479.749 116.609C479.224 116.413 478.768 116.068 478.434 115.618C478.101 115.167 477.905 114.63 477.871 114.071C477.857 113.714 477.916 113.358 478.046 113.025C478.175 112.693 478.371 112.39 478.621 112.135C478.872 111.881 479.172 111.681 479.503 111.547C479.834 111.414 480.189 111.349 480.546 111.358C480.906 111.34 481.266 111.4 481.602 111.534C481.937 111.667 482.239 111.872 482.488 112.133C482.737 112.394 482.927 112.705 483.045 113.046C483.163 113.387 483.206 113.75 483.171 114.109C483.168 114.205 483.16 114.302 483.146 114.398ZM478.838 113.707H482.305C482.268 113.281 482.073 112.884 481.758 112.595C481.442 112.305 481.03 112.145 480.603 112.145C480.175 112.145 479.763 112.305 479.448 112.595C479.133 112.884 478.937 113.281 478.901 113.707H478.838Z" fill="#263238"/>
</g>
<g opacity="0.5">
<path d="M436.88 127.798C436.88 131.754 434.657 133.864 431.403 133.864C430.401 133.9 429.408 133.665 428.527 133.186L429.155 131.93C429.835 132.317 430.61 132.504 431.391 132.47C433.74 132.47 435.234 131 435.234 128.099V127.697C434.846 128.206 434.338 128.612 433.755 128.877C433.172 129.142 432.532 129.259 431.893 129.217C431.398 129.271 430.898 129.222 430.423 129.071C429.949 128.92 429.511 128.672 429.139 128.341C428.766 128.011 428.467 127.607 428.26 127.154C428.053 126.702 427.943 126.21 427.937 125.713C427.949 125.199 428.066 124.693 428.28 124.226C428.495 123.759 428.803 123.341 429.186 122.997C429.568 122.654 430.017 122.392 430.504 122.228C430.991 122.064 431.507 122.002 432.019 122.045C435.121 122.02 436.88 124.105 436.88 127.798ZM434.832 125.662C434.832 124.469 433.878 123.427 432.069 123.427C431.753 123.393 431.434 123.427 431.132 123.524C430.829 123.622 430.551 123.782 430.314 123.994C430.078 124.205 429.888 124.464 429.758 124.754C429.627 125.044 429.559 125.357 429.557 125.675C429.557 127.031 430.562 127.911 432.182 127.911C432.505 127.943 432.831 127.911 433.141 127.814C433.451 127.718 433.738 127.56 433.986 127.35C434.233 127.141 434.436 126.883 434.581 126.593C434.727 126.303 434.812 125.986 434.832 125.662Z" fill="#263238"/>
<path d="M438.463 127.948C438.463 124.18 440.485 122.02 443.198 122.02C445.911 122.02 447.908 124.18 447.908 127.948C447.908 131.716 445.885 133.864 443.198 133.864C440.51 133.864 438.463 131.716 438.463 127.948ZM446.25 127.948C446.25 124.984 444.994 123.502 443.198 123.502C441.402 123.502 440.12 124.984 440.12 127.948C440.12 130.912 441.376 132.394 443.198 132.394C445.019 132.394 446.25 130.912 446.25 127.948Z" fill="#263238"/>
<path d="M457.591 132.293V133.738H449.264V132.607L453.986 128.06C455.242 126.867 455.431 126.139 455.431 125.41C455.431 124.23 454.589 123.501 452.919 123.501C452.363 123.468 451.808 123.565 451.295 123.783C450.783 124.001 450.329 124.334 449.967 124.757L448.837 123.777C449.368 123.189 450.023 122.726 450.755 122.422C451.487 122.118 452.278 121.98 453.069 122.019C455.481 122.019 457.038 123.275 457.038 125.247C457.02 125.958 456.839 126.656 456.51 127.287C456.182 127.918 455.714 128.466 455.142 128.889L451.6 132.293H457.591Z" fill="#263238"/>
<path d="M462.54 122.158V133.739H460.895V123.603H458.232V122.158H462.54Z" fill="#263238"/>
</g>
<path d="M434.99 199.817C442.488 205.005 450.875 208.773 459.733 210.932H459.821C459.158 210.913 458.505 211.097 457.95 211.46C457.403 211.801 456.966 212.294 456.694 212.879C456.602 213.058 456.551 213.256 456.543 213.457C456.744 210.819 455.601 207.855 454.797 205.004C453.353 200.495 451.657 195.873 449.962 191.339L454.81 188.739C458.817 194.881 472.193 214.323 463.062 219.95C461.496 220.863 459.647 221.159 457.875 220.779C447.925 219.306 438.437 215.605 430.117 209.953C429.539 209.551 429.037 209.199 428.359 208.697L435.015 199.792L434.99 199.817Z" fill="#DC897C"/>
<path d="M433.583 198.448C437.981 198.978 442.156 200.674 445.679 203.359L440.655 218.908C440.655 218.908 416.238 196.401 433.583 198.448Z" fill="#23CAFF"/>
<path opacity="0.6" d="M433.533 211.523C435.768 214.083 438.132 216.527 440.617 218.845L442.689 212.452L445.678 203.296C442.16 200.613 437.989 198.917 433.596 198.385C422.92 197.192 428.019 205.18 433.533 211.523Z" fill="white"/>
<path opacity="0.2" d="M433.533 211.524C435.768 214.084 438.132 216.528 440.617 218.847L442.689 212.453C440.083 210.423 436.875 209.318 433.571 209.313C433.496 210.048 433.483 210.787 433.533 211.524Z" fill="black"/>
<path d="M379.312 175.451C379.312 175.451 367.631 214.287 392.236 219.499C416.841 224.712 419.504 206.839 419.504 206.839C419.504 206.839 399.282 176.243 379.312 175.451Z" fill="#263238"/>
<path d="M373.547 188.313C373.501 188.326 373.454 188.326 373.408 188.313C373.373 188.296 373.341 188.271 373.316 188.241C373.29 188.212 373.271 188.177 373.259 188.139C373.247 188.101 373.243 188.062 373.247 188.022C373.251 187.983 373.264 187.945 373.283 187.911C373.65 187.241 374.168 186.665 374.796 186.229C375.424 185.793 376.144 185.509 376.9 185.399C376.978 185.401 377.053 185.432 377.111 185.485C377.168 185.538 377.205 185.61 377.214 185.688C377.218 185.727 377.213 185.767 377.201 185.805C377.189 185.843 377.17 185.878 377.144 185.909C377.118 185.939 377.087 185.964 377.051 185.982C377.016 186 376.977 186.011 376.938 186.014C376.283 186.121 375.661 186.376 375.119 186.759C374.577 187.142 374.13 187.643 373.81 188.225C373.778 188.262 373.737 188.289 373.69 188.304C373.644 188.32 373.594 188.323 373.547 188.313Z" fill="#263238"/>
<path d="M377.064 193.135C376.906 194.649 376.565 196.138 376.047 197.569C376.436 197.801 376.881 197.924 377.334 197.924C377.787 197.924 378.232 197.801 378.621 197.569L377.064 193.135Z" fill="#DE5753"/>
<path d="M374.69 191.44C374.954 192.131 375.544 192.546 375.946 192.37C376.348 192.194 376.574 191.503 376.31 190.812C376.046 190.122 375.456 189.707 375.054 189.883C374.652 190.059 374.439 190.75 374.69 191.44Z" fill="#263238"/>
<path d="M375.255 189.844H373.534C373.534 189.844 374.765 190.799 375.255 189.844Z" fill="#263238"/>
<path d="M399.696 197.959C399.653 198.071 399.594 198.177 399.52 198.273C399.407 198.486 399.282 198.687 399.156 198.901C398.42 200.224 397.44 201.396 396.267 202.355C392.499 205.357 389.221 206.261 386.37 205.394L385.956 205.256C381.723 203.535 378.42 198.474 375.795 191.779C374.63 189.16 373.896 186.369 373.622 183.515C373.622 183.515 373.622 183.414 373.622 183.389C373.622 183.364 373.622 183.163 373.622 183.063C373.524 181.427 373.835 179.793 374.528 178.308C375.221 176.823 376.274 175.535 377.591 174.559C378.717 173.676 379.938 172.922 381.233 172.311C393.78 166.195 405.989 186.115 399.696 197.959Z" fill="#E4897B"/>
<path opacity="0.2" d="M399.157 198.9C398.421 200.224 397.44 201.396 396.268 202.354C392.5 205.356 389.222 206.261 386.371 205.394C389.143 204.722 391.64 203.208 393.517 201.061C394.242 200.31 395.123 199.728 396.097 199.354C397.071 198.981 398.116 198.826 399.157 198.9Z" fill="black"/>
<path d="M373.559 183.438C373.559 183.438 377.063 192.657 387.3 192.494C387.3 192.494 395.288 200.03 400.676 197.631C408.024 194.378 409.531 181.014 402.045 171.682C392.324 159.574 371.123 168.304 373.559 183.438Z" fill="#263238"/>
<path d="M381.824 191.966C381.171 190.572 381.183 187.721 383.482 187.018C385.78 186.314 389.762 191.2 384.813 195.019C384.11 195.571 383.18 194.855 381.824 191.966Z" fill="#E4897B"/>
<path d="M384.575 166.658C384.575 166.658 375.079 168.53 372.015 174.194C368.423 180.776 368.247 185.875 377.792 189.266C377.792 189.266 389.862 177.962 395.062 176.706C398.093 175.955 401.181 175.459 404.294 175.224C400.827 165.189 388.405 162.501 384.575 166.658Z" fill="#263238"/>
<path d="M393.781 202.593C393.781 202.593 400.312 207.115 402.008 214.575L422.368 202.694C422.368 202.694 406.429 199.064 403.691 192.897C403.691 192.897 393.04 194.216 393.781 202.593Z" fill="#E4897B"/>
<path d="M414.002 251.515C414.002 251.515 387.626 225.604 384.788 217.465C384.788 217.465 395.878 200.195 418.046 199.466C440.215 198.738 455.299 240.914 455.299 240.914L414.002 251.515Z" fill="#23CAFF"/>
<path opacity="0.6" d="M455.3 240.926L414.015 251.527C414.015 251.527 408.263 245.862 401.832 238.967C399.848 236.819 397.775 234.558 395.778 232.322C390.541 226.382 385.919 220.579 384.801 217.426C384.801 217.426 395.879 200.156 418.047 199.428C440.216 198.699 455.3 240.926 455.3 240.926Z" fill="white"/>
<path d="M389.36 188.074C389.36 188.074 393.216 200.885 406.755 205.13C420.295 209.375 416.891 223.204 430.017 221.571C437 220.705 442.979 206.499 421.564 193.939C409.079 186.642 413.927 162.652 387.426 164.9C387.401 164.913 392.902 181.354 389.36 188.074Z" fill="#263238"/>
<path d="M402.51 446.796L396.23 445.364C397.172 413.964 401.706 375.996 405.713 347.472C406.341 343 406.969 338.78 407.546 334.836C407.835 332.965 408.099 331.169 408.363 329.436C409.619 320.882 410.774 314.125 411.465 309.943C411.98 306.89 412.269 305.22 412.269 305.22L434.877 310.734L433.257 316.436L427.919 335.276L427.316 337.424L423.774 349.846L417.77 370.984C418.147 402.899 402.51 446.796 402.51 446.796Z" fill="#E4897B"/>
<path d="M456.267 441.547L449.836 441.22C444.937 407.459 442.878 365.232 441.986 335.88C441.86 331.333 441.747 327.088 441.659 323.219C441.659 323.031 441.659 322.842 441.659 322.654C441.496 315.005 441.421 308.926 441.383 305.07C441.383 302.056 441.383 300.41 441.383 300.41L464.581 301.93L463.589 311.601L462.132 325.794L461.843 328.582L460.838 338.253L458.125 364.24C464.054 395.64 456.267 441.547 456.267 441.547Z" fill="#E4897B"/>
<path d="M458.678 440.29C458.678 439.486 448.756 440.114 448.756 440.114C448.756 440.114 442.664 446.306 436.748 447.65C430.833 448.994 434.149 452.599 440.755 452.599H457.083C461.806 452.649 458.867 448.643 458.678 440.29Z" fill="#263238"/>
<path d="M442.677 442.414C442.533 442.284 442.434 442.113 442.391 441.924C442.348 441.735 442.365 441.538 442.438 441.359C442.477 441.218 442.544 441.087 442.635 440.973C442.725 440.858 442.838 440.763 442.966 440.693C443.669 440.406 444.439 440.319 445.189 440.442C444.385 440.015 443.682 439.5 443.644 438.973C443.644 438.633 443.845 438.357 444.297 438.144C444.494 438.054 444.708 438.008 444.925 438.008C445.142 438.008 445.356 438.054 445.553 438.144C446.897 438.709 447.726 441.02 447.764 441.108C447.79 441.172 447.79 441.244 447.764 441.309V441.372C447.74 441.399 447.71 441.421 447.676 441.434C446.395 442.09 445.009 442.515 443.581 442.69C443.256 442.712 442.934 442.614 442.677 442.414ZM443.229 441.158C443.161 441.193 443.101 441.24 443.051 441.299C443.001 441.357 442.964 441.424 442.94 441.497C442.84 441.887 442.94 441.987 442.94 442.025C443.418 442.414 445.226 441.861 446.708 441.246C445.581 440.89 444.376 440.855 443.229 441.145V441.158ZM444.485 438.646C444.347 438.646 444.121 438.834 444.134 438.973C444.134 439.412 445.578 440.229 447.035 440.744C446.71 439.873 446.116 439.13 445.339 438.621C445.214 438.562 445.076 438.532 444.938 438.533C444.795 438.532 444.653 438.562 444.523 438.621L444.485 438.646Z" fill="#263238"/>
<path d="M405.688 440.29C405.688 439.486 395.778 440.114 395.778 440.114C395.778 440.114 389.687 446.306 383.771 447.65C377.855 448.994 381.158 452.599 387.765 452.599H404.093C408.828 452.649 405.902 448.643 405.688 440.29Z" fill="#263238"/>
<path d="M389.699 442.414C389.558 442.282 389.461 442.111 389.418 441.923C389.376 441.735 389.39 441.539 389.46 441.359C389.499 441.218 389.566 441.087 389.657 440.973C389.747 440.858 389.86 440.763 389.988 440.693C390.691 440.407 391.461 440.32 392.211 440.442C391.407 440.015 390.704 439.5 390.678 438.973C390.678 438.638 390.892 438.361 391.319 438.144C391.516 438.054 391.73 438.008 391.947 438.008C392.164 438.008 392.378 438.054 392.575 438.144C393.919 438.709 394.748 441.02 394.786 441.108C394.801 441.139 394.809 441.173 394.809 441.208C394.809 441.243 394.801 441.277 394.786 441.309C394.786 441.309 394.786 441.309 394.786 441.372L394.698 441.434C393.412 442.088 392.022 442.513 390.591 442.69C390.27 442.707 389.954 442.609 389.699 442.414ZM390.251 441.158C390.185 441.193 390.126 441.241 390.078 441.299C390.031 441.357 389.996 441.425 389.975 441.497C389.875 441.887 389.975 441.987 390.038 442.025C390.503 442.414 392.311 441.861 393.806 441.246C392.655 440.876 391.422 440.841 390.251 441.145V441.158ZM391.507 438.646C391.369 438.646 391.143 438.834 391.156 438.973C391.156 439.412 392.6 440.229 394.07 440.744C393.74 439.873 393.142 439.129 392.361 438.621C392.236 438.561 392.099 438.531 391.96 438.533C391.817 438.532 391.675 438.562 391.545 438.621L391.507 438.646Z" fill="#263238"/>
<path d="M408.652 314.666L414.003 276.986V251.489C428.108 240.889 455.3 240.889 455.3 240.889C455.3 240.889 476.187 269.865 466.039 317.505L439.813 321.273L438.143 312.38L434.852 321.273L408.652 314.666Z" fill="#263238"/>
<path opacity="0.2" d="M408.652 314.666L414.003 276.986V251.489C428.108 240.889 455.3 240.889 455.3 240.889C455.3 240.889 476.187 269.865 466.039 317.505L439.813 321.273L438.143 312.38L434.852 321.273L408.652 314.666Z" fill="white"/>
<path opacity="0.2" d="M438.143 312.518L443.167 296.831C443.167 296.831 448.467 295.223 455.275 284.698C455.3 284.698 454.119 302.609 438.143 312.518Z" fill="black"/>
<path opacity="0.2" d="M426.965 258.737L438.733 257.619C440.612 262.019 441.263 266.845 440.617 271.586L433.081 276.12L427.618 272.239C427.618 272.239 427.442 262.279 426.965 258.737Z" fill="black"/>
<path opacity="0.2" d="M455.3 255.86C456.879 259.742 458.045 263.779 458.779 267.905L462.949 269.676L465.197 266.875C465.197 266.875 463.678 258.673 461.103 254.654L455.3 255.86Z" fill="black"/>
<path d="M408.162 312.518L435.995 320.682L434.249 324.425L407.81 316.286L408.162 312.518Z" fill="#263238"/>
<path d="M438.733 320.142L439.197 323.583L466.49 320.142L466.905 315.809L438.733 320.142Z" fill="#263238"/>
<path d="M444.461 246.177C448.925 245.423 453.437 244.982 457.963 244.858L456.28 242.083C451.878 241.966 447.474 242.227 443.117 242.861L444.461 246.177Z" fill="#263238"/>
<path d="M419.428 249.592C415.823 251.149 413.751 252.317 413.751 252.317V255.746C415.777 254.725 417.808 253.791 419.843 252.945L419.428 249.592Z" fill="#263238"/>
<path d="M421.162 252.455C428.143 249.718 435.386 247.702 442.778 246.439L441.522 243.098C434.356 244.293 427.352 246.307 420.647 249.102L421.162 252.455Z" fill="#263238"/>
<path d="M345.701 262.266L338.567 259.403L337.311 266.135C337.311 266.135 343.742 270.028 346.429 265.394L345.701 262.266Z" fill="#E4897B"/>
<path d="M335.025 259.817L332.739 265.017L337.361 266.135L338.567 259.403L335.025 259.817Z" fill="#E4897B"/>
<path d="M455.186 189.908L454.345 182.271L447.839 184.381C447.839 184.381 447.437 191.917 452.8 192.068L455.186 189.908Z" fill="#E4897B"/>
<path d="M452.298 179.345L446.633 179.797L447.839 184.382L454.345 182.271L452.298 179.345Z" fill="#E4897B"/>
<path opacity="0.2" d="M401.832 239.004C399.847 236.856 397.775 234.596 395.778 232.36C395.012 227.688 394.522 223.568 394.522 223.568C396.914 225.343 398.833 227.679 400.108 230.372C401.383 233.064 401.975 236.029 401.832 239.004Z" fill="black"/>
<path d="M395.25 221.408C392.373 233.006 388.03 244.191 382.326 254.692C376.674 265.431 355.184 266.724 344.382 267.001L343.88 261.524C350.386 259.992 370.608 255.96 373.371 250.095C377.882 239.932 381.594 229.434 384.474 218.695L395.25 221.383V221.408Z" fill="#DC897C"/>
<path d="M389.096 211.937C382.954 215.957 379.663 226.407 378.621 231.518L391.382 240.913L397.825 234.633C400.437 220.214 391.432 210.418 389.096 211.937Z" fill="#23CAFF"/>
<path opacity="0.6" d="M389.096 211.937C382.954 215.957 379.663 226.407 378.621 231.518L391.382 240.913L397.825 234.633C400.437 220.214 391.432 210.418 389.096 211.937Z" fill="white"/>
<path d="M451.393 192.356L442.275 193.336C442.146 193.339 442.018 193.316 441.899 193.268C441.78 193.22 441.672 193.147 441.583 193.055C441.493 192.963 441.423 192.853 441.378 192.733C441.333 192.613 441.313 192.484 441.32 192.356L440.768 173.051C440.75 172.778 440.832 172.508 440.998 172.291C441.165 172.074 441.404 171.925 441.672 171.871L450.778 170.903C450.907 170.898 451.036 170.92 451.156 170.967C451.276 171.015 451.384 171.087 451.475 171.18C451.565 171.272 451.634 171.383 451.679 171.504C451.723 171.625 451.741 171.754 451.732 171.883L452.285 191.188C452.303 191.457 452.222 191.724 452.058 191.939C451.894 192.154 451.658 192.302 451.393 192.356Z" fill="#263238"/>
<path opacity="0.6" d="M451.393 192.356L442.275 193.336C442.146 193.339 442.018 193.316 441.899 193.268C441.78 193.22 441.672 193.147 441.583 193.055C441.493 192.963 441.423 192.853 441.378 192.733C441.333 192.613 441.313 192.484 441.32 192.356L440.768 173.051C440.75 172.778 440.832 172.508 440.998 172.291C441.165 172.074 441.404 171.925 441.672 171.871L450.778 170.903C450.907 170.898 451.036 170.92 451.156 170.967C451.276 171.015 451.384 171.087 451.475 171.18C451.565 171.272 451.634 171.383 451.679 171.504C451.723 171.625 451.741 171.754 451.732 171.883L452.285 191.188C452.303 191.457 452.222 191.724 452.058 191.939C451.894 192.154 451.658 192.302 451.393 192.356Z" fill="white"/>
<path d="M450.59 192.445L441.484 193.412C441.355 193.42 441.226 193.4 441.105 193.354C440.984 193.308 440.875 193.237 440.784 193.145C440.692 193.054 440.621 192.944 440.575 192.824C440.529 192.703 440.509 192.574 440.517 192.445L439.976 173.128C439.953 172.857 440.032 172.588 440.197 172.372C440.361 172.156 440.601 172.009 440.868 171.96L449.974 170.993C450.102 170.987 450.23 171.009 450.349 171.056C450.468 171.102 450.576 171.174 450.666 171.265C450.756 171.356 450.826 171.465 450.871 171.584C450.916 171.704 450.936 171.832 450.929 171.96L451.481 191.277C451.505 191.548 451.426 191.818 451.261 192.034C451.096 192.249 450.857 192.396 450.59 192.445Z" fill="#263238"/>
<path opacity="0.7" d="M450.59 192.445L441.484 193.412C441.355 193.42 441.226 193.4 441.105 193.354C440.984 193.308 440.875 193.237 440.784 193.145C440.692 193.054 440.621 192.944 440.575 192.824C440.529 192.703 440.509 192.574 440.517 192.445L439.976 173.128C439.953 172.857 440.032 172.588 440.197 172.372C440.361 172.156 440.601 172.009 440.868 171.96L449.974 170.993C450.102 170.987 450.23 171.009 450.349 171.056C450.468 171.102 450.576 171.174 450.666 171.265C450.756 171.356 450.826 171.465 450.871 171.584C450.916 171.704 450.936 171.832 450.929 171.96L451.481 191.277C451.505 191.548 451.426 191.818 451.261 192.034C451.096 192.249 450.857 192.396 450.59 192.445Z" fill="white"/>
<path d="M449.987 171.369L447.6 171.62L447.299 172.361L443.606 172.751L443.267 172.085L440.881 172.336C440.708 172.372 440.554 172.47 440.448 172.611C440.341 172.752 440.29 172.926 440.303 173.102L440.843 192.407C440.837 192.491 440.85 192.575 440.879 192.654C440.909 192.733 440.955 192.804 441.015 192.864C441.074 192.923 441.145 192.969 441.224 192.999C441.303 193.028 441.387 193.041 441.471 193.035L450.577 192.068C450.749 192.035 450.902 191.94 451.009 191.801C451.115 191.662 451.167 191.489 451.155 191.314L450.615 171.997C450.618 171.914 450.604 171.831 450.574 171.753C450.544 171.675 450.498 171.604 450.439 171.545C450.38 171.486 450.309 171.44 450.231 171.41C450.153 171.379 450.07 171.366 449.987 171.369Z" fill="#23CAFF"/>
<path opacity="0.8" d="M448.768 178.352L442.074 179.068C441.992 179.071 441.91 179.058 441.834 179.028C441.758 178.999 441.689 178.953 441.631 178.895C441.573 178.838 441.528 178.768 441.498 178.692C441.468 178.616 441.455 178.534 441.458 178.452V176.593C441.443 176.42 441.492 176.247 441.596 176.108C441.701 175.969 441.853 175.873 442.024 175.84L448.731 175.124C448.812 175.122 448.894 175.137 448.97 175.168C449.045 175.2 449.114 175.246 449.17 175.305C449.227 175.364 449.271 175.435 449.299 175.511C449.327 175.588 449.339 175.67 449.334 175.752L449.396 177.611C449.407 177.791 449.348 177.969 449.231 178.107C449.114 178.245 448.948 178.333 448.768 178.352Z" fill="white"/>
</svg>
