<svg width="537" height="523" viewBox="0 0 537 523" fill="none" xmlns="http://www.w3.org/2000/svg">
<g clip-path="url(#clip0_25_1197)">
<path d="M342.327 117.239H313.77V360.708C313.77 364.528 313.017 368.31 311.556 371.84C310.094 375.369 307.951 378.575 305.25 381.277C302.549 383.978 299.342 386.12 295.813 387.582C292.284 389.044 288.501 389.796 284.681 389.796H66.3472V390.075C66.3472 393.895 67.0995 397.677 68.5614 401.206C70.0232 404.736 72.1658 407.942 74.867 410.643C77.5681 413.345 80.7748 415.487 84.304 416.949C87.8332 418.411 91.6157 419.163 95.4357 419.163H342.327C346.147 419.163 349.93 418.411 353.459 416.949C356.988 415.487 360.195 413.345 362.896 410.643C365.597 407.942 367.74 404.736 369.202 401.206C370.663 397.677 371.416 393.895 371.416 390.075V146.327C371.416 138.613 368.351 131.214 362.896 125.759C357.441 120.303 350.042 117.239 342.327 117.239Z" fill="#F2F2F2"/>
<path d="M477.703 504.147C478.209 504.17 478.709 504.037 479.137 503.767C479.564 503.496 479.899 503.1 480.094 502.633C480.289 502.167 480.336 501.651 480.228 501.156C480.121 500.662 479.864 500.212 479.492 499.869L479.323 499.196C479.345 499.143 479.368 499.089 479.39 499.035C479.899 497.832 480.753 496.806 481.843 496.087C482.934 495.367 484.212 494.986 485.519 494.991C486.825 494.996 488.101 495.387 489.186 496.114C490.271 496.842 491.117 497.874 491.617 499.08C493.617 503.897 496.163 508.721 496.79 513.814C497.066 516.065 496.949 518.347 496.445 520.558C501.142 510.312 503.581 499.176 503.597 487.905C503.598 485.077 503.441 482.251 503.126 479.44C502.866 477.136 502.506 474.848 502.044 472.577C499.527 460.252 494.122 448.701 486.273 438.871C482.474 436.798 479.402 433.61 477.471 429.738C476.771 428.346 476.277 426.86 476.003 425.326C476.431 425.382 477.618 418.856 477.295 418.456C477.892 417.549 478.961 417.099 479.613 416.215C482.857 411.817 487.326 412.585 489.659 418.561C494.643 421.076 494.691 425.248 491.633 429.26C489.688 431.813 489.42 435.267 487.713 437.999C487.889 438.224 488.072 438.442 488.247 438.667C491.458 442.795 494.256 447.228 496.602 451.902C496.031 446.666 496.712 441.369 498.588 436.447C500.489 431.86 504.053 427.997 507.192 424.031C508.022 422.966 509.149 422.171 510.431 421.746C511.713 421.321 513.092 421.286 514.394 421.645C515.696 422.004 516.862 422.741 517.746 423.763C518.629 424.784 519.189 426.045 519.356 427.385C519.363 427.443 519.369 427.502 519.375 427.56C518.909 427.823 518.453 428.102 518.006 428.398C517.445 428.772 517.011 429.308 516.759 429.934C516.508 430.56 516.451 431.247 516.597 431.906C516.743 432.564 517.085 433.163 517.577 433.625C518.069 434.086 518.689 434.388 519.356 434.49L519.424 434.501C519.258 436.181 518.965 437.846 518.546 439.482C522.572 455.052 513.88 460.724 501.468 460.978C501.194 461.119 500.927 461.259 500.653 461.393C503.01 468.072 504.488 475.029 505.051 482.089C505.37 486.254 505.351 490.438 504.995 494.6L505.016 494.453C505.915 489.824 508.384 485.648 512.006 482.63C517.385 478.211 524.985 476.584 530.788 473.032C531.405 472.636 532.122 472.424 532.855 472.423C533.588 472.421 534.306 472.629 534.924 473.022C535.543 473.415 536.036 473.976 536.346 474.641C536.656 475.305 536.77 476.044 536.674 476.77L536.65 476.925C535.785 477.278 534.942 477.683 534.128 478.141C533.662 478.404 533.205 478.683 532.759 478.978C532.198 479.353 531.763 479.888 531.512 480.514C531.261 481.14 531.204 481.827 531.35 482.486C531.496 483.145 531.837 483.744 532.33 484.205C532.822 484.666 533.442 484.968 534.109 485.071L534.177 485.081C534.226 485.088 534.268 485.095 534.317 485.102C532.839 488.632 530.765 491.88 528.185 494.706C525.667 508.298 514.854 509.588 503.288 505.63H503.281C502.012 511.144 500.173 516.512 497.794 521.647H478.194C478.124 521.429 478.061 521.204 477.998 520.986C479.812 521.1 481.633 520.992 483.421 520.663C481.967 518.879 480.513 517.081 479.058 515.296C479.026 515.263 478.995 515.228 478.967 515.191C478.229 514.278 477.485 513.371 476.747 512.458L476.747 512.457C476.707 509.658 477.029 506.864 477.703 504.147Z" fill="#F2F2F2"/>
<path d="M261.827 84.1184C262.543 85.2026 263.485 86.1184 264.59 86.8024C265.694 87.4865 266.934 87.9225 268.223 88.0804C269.513 88.2382 270.821 88.114 272.057 87.7165C273.294 87.319 274.43 86.6575 275.386 85.778L316.135 104.162L323.991 94.1415L275.433 72.6598C273.833 71.1609 271.738 70.301 269.547 70.2431C267.355 70.1852 265.218 70.9334 263.541 72.3458C261.864 73.7582 260.763 75.7368 260.447 77.9066C260.131 80.0763 260.622 82.2866 261.827 84.1184Z" fill="#A0616A"/>
<path d="M436.706 95.5834L440.747 118.485C440.936 119.554 440.899 120.65 440.639 121.703C440.379 122.757 439.901 123.744 439.237 124.602C438.573 125.46 437.736 126.169 436.782 126.685C435.827 127.2 434.775 127.511 433.694 127.596L365.02 132.996L284.297 96.8689L293.939 78.5667L364.013 100.757L436.706 95.5834Z" fill="#23CAFF"/>
<path d="M275.98 79.1692H29.0885C13.0234 79.1692 0 92.1926 0 108.258V352.005C0 368.07 13.0234 381.094 29.0885 381.094H275.98C292.045 381.094 305.069 368.07 305.069 352.005V108.258C305.069 92.1926 292.045 79.1692 275.98 79.1692Z" fill="#F2F2F2"/>
<path d="M29.0884 85.1523C26.054 85.1523 23.0493 85.75 20.2459 86.9112C17.4425 88.0724 14.8953 89.7744 12.7496 91.9201C10.604 94.0657 8.90199 96.6129 7.74079 99.4163C6.57958 102.22 5.98193 105.224 5.98193 108.259V352.006C5.98193 358.135 8.41635 364.012 12.7496 368.345C17.0829 372.678 22.9602 375.113 29.0884 375.113H186.661C201.424 375.113 216.044 372.205 229.684 366.555C243.324 360.905 255.718 352.624 266.157 342.184C276.597 331.745 284.878 319.351 290.528 305.711C296.178 292.071 299.086 277.451 299.086 262.687V108.259C299.086 105.224 298.488 102.22 297.327 99.4163C296.166 96.6129 294.464 94.0657 292.318 91.9201C290.173 89.7744 287.625 88.0724 284.822 86.9112C282.019 85.75 279.014 85.1523 275.979 85.1523H29.0884Z" fill="white"/>
<path d="M221.552 159.126H82.977C81.7055 159.126 80.486 158.621 79.5869 157.722C78.6877 156.823 78.1826 155.604 78.1826 154.332C78.1826 153.06 78.6877 151.841 79.5869 150.942C80.486 150.043 81.7055 149.538 82.977 149.538H221.552C222.824 149.538 224.043 150.043 224.942 150.942C225.841 151.841 226.346 153.06 226.346 154.332C226.346 155.604 225.841 156.823 224.942 157.722C224.043 158.621 222.824 159.126 221.552 159.126Z" fill="#F2F2F2"/>
<path d="M221.552 261.366H82.977C81.7055 261.366 80.486 260.861 79.5869 259.962C78.6877 259.063 78.1826 257.844 78.1826 256.572C78.1826 255.3 78.6877 254.081 79.5869 253.182C80.486 252.283 81.7055 251.778 82.977 251.778H221.552C222.824 251.778 224.043 252.283 224.942 253.182C225.841 254.081 226.346 255.3 226.346 256.572C226.346 257.844 225.841 259.063 224.942 259.962C224.043 260.861 222.824 261.366 221.552 261.366Z" fill="#F2F2F2"/>
<path d="M277.825 210.279H26.7048C25.4332 210.279 24.2137 209.773 23.3146 208.874C22.4155 207.975 21.9103 206.756 21.9103 205.484C21.9103 204.213 22.4155 202.993 23.3146 202.094C24.2137 201.195 25.4332 200.69 26.7048 200.69H277.825C279.096 200.69 280.316 201.195 281.215 202.094C282.114 202.993 282.619 204.213 282.619 205.484C282.619 206.756 282.114 207.975 281.215 208.874C280.316 209.773 279.096 210.279 277.825 210.279Z" fill="#F2F2F2"/>
<path d="M428.029 196.525L403.013 249.82L499.246 240.074L479.158 188.911L428.029 196.525Z" fill="#A0616A"/>
<path d="M450.402 502.848L441.278 502.771L437.239 466.757L450.704 466.872L450.402 502.848Z" fill="#A0616A"/>
<path d="M421.176 517.355C421.168 518.437 421.589 519.477 422.347 520.249C423.106 521.02 424.139 521.459 425.221 521.47L443.361 521.621L446.537 515.184L447.703 521.654L454.548 521.716L452.82 498.64L450.438 498.481L440.725 497.812L437.591 497.602L437.536 504.131L422.964 514.015C422.418 514.386 421.97 514.883 421.659 515.465C421.347 516.047 421.182 516.695 421.176 517.355Z" fill="#2F2E41"/>
<path d="M349.429 502.888L340.73 500.133L347.451 464.523L360.29 468.587L349.429 502.888Z" fill="#A0616A"/>
<path d="M317.23 508.171C316.905 509.203 317.002 510.321 317.5 511.281C317.998 512.241 318.856 512.965 319.887 513.293L337.183 518.767L342.11 513.547L341.323 520.074L347.848 522.145L352.976 499.579L350.746 498.728L341.658 495.234L338.724 494.113L336.753 500.337L319.92 505.504C319.289 505.698 318.715 506.041 318.247 506.506C317.778 506.971 317.429 507.542 317.23 508.171Z" fill="#2F2E41"/>
<path d="M494.863 225.087L407.364 241.12C407.364 241.12 393.329 251.618 397.083 255.377C400.838 259.137 401.42 258.555 398.953 261.021C396.487 263.488 391.154 266.785 391.101 268.943C391.049 271.101 351.893 367.903 351.893 367.903C351.893 367.903 356.243 365.728 352.98 368.991C349.717 372.254 349.717 374.95 349.717 374.95L334.49 477.757L359.22 479.213L383.435 385.486L437.448 297.925C437.448 297.925 442.807 376.007 443.032 381.2C443.256 386.393 446.519 379.867 443.256 386.393C439.993 392.919 437.818 388.569 439.993 392.919C442.169 397.27 432.157 485.843 432.157 485.843H454.729L503.141 302.256C503.141 302.256 520.365 249.77 494.863 225.087Z" fill="#2F2E41"/>
<path d="M469.086 78.2402L434.036 74.5984L424.955 86.3878L414.377 92.0222C409.9 94.4065 406.205 98.0299 403.733 102.459C401.261 106.888 400.117 111.935 400.438 116.997L412.801 188.913C412.801 188.913 402.359 212.427 409.538 218.279C416.718 224.132 403.987 238.626 419.327 231.331C434.667 224.036 500.902 232.419 500.902 232.419L486.762 192.176L497.325 152.631L498.488 119.473C498.705 113.277 496.866 107.183 493.258 102.141C489.65 97.0997 484.475 93.3933 478.54 91.5998L477.063 91.1535L469.086 78.2402Z" fill="#23CAFF"/>
<path d="M517.34 51.369C517.57 61.2482 513.878 70.8142 508.574 79.2164C506.998 74.3113 504.165 69.8471 501.21 65.5914C502.699 74.7976 501.113 84.2381 496.696 92.4518C496.54 92.5632 496.379 92.6666 496.213 92.7617C491.89 95.3623 486.409 96.4156 481.732 94.5373C491.395 84.1211 492.625 66.863 484.523 55.1796C482.229 51.8644 479.263 48.9323 477.842 45.1596C475.599 39.1399 477.756 32.5121 479.116 26.2359C480.388 20.3947 480.61 13.4436 476.691 9.16279C477.11 8.56455 477.68 8.08834 478.343 7.78298C479.007 7.47762 479.739 7.35407 480.466 7.42499C482.882 7.76629 484.641 9.86642 485.761 12.0294C486.881 14.1924 487.62 16.5896 489.181 18.4579C492.072 21.9547 496.995 22.7814 501.143 24.6243C511.191 29.0996 517.099 40.3761 517.34 51.369Z" fill="#2F2E41"/>
<path d="M258.484 521.705C258.484 521.875 258.517 522.044 258.582 522.201C258.647 522.358 258.742 522.501 258.862 522.622C258.983 522.742 259.126 522.837 259.283 522.902C259.44 522.967 259.609 523 259.779 523H535.272C535.616 523 535.945 522.863 536.188 522.62C536.43 522.378 536.567 522.048 536.567 521.705C536.567 521.362 536.43 521.033 536.188 520.79C535.945 520.547 535.616 520.411 535.272 520.411H259.779C259.609 520.41 259.44 520.443 259.283 520.508C259.126 520.573 258.983 520.669 258.862 520.789C258.742 520.909 258.647 521.052 258.582 521.209C258.517 521.367 258.484 521.535 258.484 521.705Z" fill="#CCCCCC"/>
<path d="M519.509 280.342C524.915 280.342 529.298 275.959 529.298 270.553C529.298 265.146 524.915 260.764 519.509 260.764C514.103 260.764 509.72 265.146 509.72 270.553C509.72 275.959 514.103 280.342 519.509 280.342Z" fill="#23CAFF"/>
<path d="M432.766 45.7208C433.34 43.7113 429.383 55.9953 431.292 56.217C439.99 57.2148 451.93 62.4093 457.987 64.8326C458.26 64.8009 458.533 64.7692 458.798 64.7296C459.448 64.6583 460.082 64.5554 460.707 64.4366C474.813 61.7678 480.237 40.1001 480.237 39.9021C480.237 38.928 477.899 12.1744 474.217 11.7785C473.249 11.6735 472.277 11.6206 471.304 11.6201H462.165C460.274 11.2126 458.357 10.9347 456.428 10.7885H456.412C438.014 9.3868 423.507 20.6006 424.863 34.2457C424.871 34.2615 424.888 34.2774 424.895 34.2932C425.289 34.8793 425.634 35.4336 425.939 35.9642C426.235 36.4631 426.484 36.9383 426.701 37.3897C428.378 40.8742 424.067 45.2589 426.925 46.0773C430.727 47.1658 416.927 82.942 431.974 82.942C424.655 85.0229 431.182 51.2644 432.766 45.7208Z" fill="#2F2E41"/>
<path d="M449.189 66.7139C461.139 66.7139 470.827 57.0264 470.827 45.0764C470.827 33.1264 461.139 23.439 449.189 23.439C437.239 23.439 427.552 33.1264 427.552 45.0764C427.552 57.0264 437.239 66.7139 449.189 66.7139Z" fill="#A0616A"/>
<path d="M424.863 35.4254C425.224 35.6154 425.577 35.7896 425.938 35.9639C426.315 36.146 426.692 36.3282 427.069 36.4945C434.315 39.781 440.212 40.1453 443.79 35.4254C443.886 32.9418 444.444 30.4979 445.435 28.2187C445.26 30.7657 445.932 33.2993 447.345 35.4254H454.55C461.972 40.3512 465.783 40.866 460.632 57.0373C459.196 61.5435 453.485 87.7645 455.732 91.653C456.382 91.5817 463.296 62.8615 463.922 62.7427C478.027 60.0739 486.99 36.835 485.842 35.5204C485.848 31.782 484.988 28.093 483.331 24.7421C481.234 20.4968 477.965 16.9407 473.911 14.4945C471.495 13.3227 468.975 12.3763 466.385 11.6672C466.321 11.6514 466.264 11.6355 466.2 11.6197C465.406 11.4059 464.596 11.2079 463.785 11.0416C462.111 10.6881 460.418 10.4316 458.714 10.2734C458.594 10.2655 458.474 10.2576 458.361 10.2576C457.681 10.2592 457.013 10.4423 456.428 10.7882C456.42 10.7882 456.42 10.7961 456.412 10.7961C455.993 11.0407 455.627 11.3665 455.336 11.7543C454.824 12.4069 454.547 13.2133 454.55 14.043H446.527C446.23 14.043 445.933 14.0509 445.636 14.0668C440.281 14.2498 435.187 16.4245 431.351 20.1654C427.514 23.9063 425.212 28.9441 424.895 34.2929C424.871 34.673 424.863 35.0452 424.863 35.4254Z" fill="#2F2E41"/>
<path d="M472.172 28.5098C480.045 28.5098 486.427 22.1276 486.427 14.2549C486.427 6.38213 480.045 0 472.172 0C464.299 0 457.917 6.38213 457.917 14.2549C457.917 22.1276 464.299 28.5098 472.172 28.5098Z" fill="#2F2E41"/>
<path d="M519.619 274.589C520.314 273.492 520.763 272.257 520.935 270.969C521.106 269.681 520.996 268.372 520.611 267.131C520.227 265.89 519.578 264.748 518.708 263.783C517.839 262.817 516.77 262.053 515.576 261.541L515.647 216.837L503.286 213.777L503.591 266.874C502.879 268.948 502.953 271.211 503.798 273.234C504.644 275.257 506.202 276.899 508.178 277.85C510.153 278.801 512.409 278.995 514.518 278.394C516.626 277.792 518.441 276.439 519.619 274.589Z" fill="#A0616A"/>
<path d="M458.41 110.373L477.644 97.3012C478.542 96.6914 479.557 96.2759 480.624 96.0815C481.691 95.8871 482.788 95.918 483.842 96.1723C484.897 96.4266 485.887 96.8987 486.749 97.5581C487.61 98.2176 488.324 99.05 488.845 100.002L521.914 160.431L522.04 248.869L501.394 247.575L492.919 174.561L458.41 110.373Z" fill="#23CAFF"/>
<path d="M310.685 310.938H105.117C100.646 310.938 96.3581 312.714 93.1965 315.876C90.0349 319.037 88.2587 323.325 88.2587 327.796C88.2587 332.268 90.0349 336.556 93.1965 339.717C96.3581 342.879 100.646 344.655 105.117 344.655H310.685C315.157 344.655 319.445 342.879 322.606 339.717C325.768 336.556 327.544 332.268 327.544 327.796C327.544 323.325 325.768 319.037 322.606 315.876C319.445 312.714 315.157 310.938 310.685 310.938Z" fill="white"/>
<path d="M310.685 345.744H105.117C100.358 345.744 95.793 343.853 92.4274 340.488C89.0618 337.122 87.171 332.557 87.171 327.798C87.171 323.038 89.0618 318.473 92.4274 315.108C95.793 311.742 100.358 309.851 105.117 309.851H310.685C315.445 309.851 320.01 311.742 323.375 315.108C326.741 318.473 328.632 323.038 328.632 327.798C328.632 332.557 326.741 337.122 323.375 340.488C320.01 343.853 315.445 345.744 310.685 345.744ZM105.117 312.027C100.935 312.027 96.9232 313.688 93.9656 316.646C91.0079 319.604 89.3463 323.615 89.3463 327.798C89.3463 331.98 91.0079 335.992 93.9656 338.95C96.9232 341.907 100.935 343.569 105.117 343.569H310.685C314.868 343.569 318.88 341.907 321.837 338.95C324.795 335.992 326.456 331.98 326.456 327.798C326.456 323.615 324.795 319.604 321.837 316.646C318.88 313.688 314.868 312.027 310.685 312.027H105.117Z" fill="#23CAFF"/>
<path d="M322.808 384.51H232.09C230.818 384.51 229.599 384.004 228.7 383.105C227.801 382.206 227.296 380.987 227.296 379.715C227.296 378.444 227.801 377.224 228.7 376.325C229.599 375.426 230.818 374.921 232.09 374.921H322.808C324.079 374.921 325.299 375.426 326.198 376.325C327.097 377.224 327.602 378.444 327.602 379.715C327.602 380.987 327.097 382.206 326.198 383.105C325.299 384.004 324.079 384.51 322.808 384.51Z" fill="#23CAFF"/>
</g>
<defs>
<clipPath id="clip0_25_1197">
<rect width="536.719" height="523" fill="white"/>
</clipPath>
</defs>
</svg>
