<svg width="547" height="380" viewBox="0 0 547 380" fill="none" xmlns="http://www.w3.org/2000/svg">
<g clip-path="url(#clip0_25_1104)">
<path d="M108.821 379.999C168.921 379.999 217.642 376.299 217.642 371.734C217.642 367.17 168.921 363.469 108.821 363.469C48.7208 363.469 0 367.17 0 371.734C0 376.299 48.7208 379.999 108.821 379.999Z" fill="#E6E6E6"/>
<path d="M83.1811 84.3142C102.119 76.2591 125.707 81.3627 148.743 84.9048C148.957 80.6153 151.556 75.3948 148.834 72.4022C145.527 68.7665 145.832 64.9464 147.821 61.1043C152.91 51.2794 145.62 40.8252 138.259 32.1326C136.6 30.1778 134.503 28.6418 132.139 27.6495C129.775 26.6572 127.21 26.2366 124.652 26.4217L111.017 27.3957C107.699 27.6327 104.533 28.8773 101.941 30.9631C99.3499 33.0489 97.4574 35.8764 96.517 39.0672C93.2612 43.4952 91.5185 47.911 92.6157 52.3038C87.739 55.6365 86.9196 59.6594 89.111 64.1945C90.9693 67.0499 90.9495 69.8295 89.0265 72.5321C86.5011 75.9777 84.5668 79.8197 83.303 83.9005L83.1811 84.3142Z" fill="#2F2E41"/>
<path d="M533.229 328.505H147.246C143.814 328.505 140.522 327.141 138.095 324.714C135.668 322.287 134.304 318.995 134.304 315.563C274.223 299.301 411.512 299.301 546.171 315.563C546.171 318.995 544.808 322.287 542.38 324.714C539.953 327.141 536.661 328.505 533.229 328.505Z" fill="#2F2E41"/>
<path d="M546.171 316.323L134.304 315.562L182.038 235.244L182.266 234.863V57.8517C182.266 55.7032 182.689 53.5756 183.511 51.5906C184.334 49.6056 185.539 47.8019 187.058 46.2827C188.577 44.7634 190.381 43.5583 192.366 42.7362C194.351 41.9141 196.478 41.491 198.627 41.4912H479.564C481.713 41.491 483.84 41.9141 485.826 42.7362C487.811 43.5583 489.614 44.7634 491.133 46.2827C492.653 47.8019 493.858 49.6056 494.68 51.5906C495.502 53.5756 495.925 55.7032 495.925 57.8517V236.081L546.171 316.323Z" fill="#3F3D56"/>
<path d="M198.254 52.9094C196.841 52.911 195.487 53.473 194.488 54.472C193.489 55.4711 192.927 56.8257 192.925 58.2386V219.636C192.927 221.048 193.489 222.403 194.488 223.402C195.487 224.401 196.841 224.963 198.254 224.965H482.222C483.635 224.963 484.989 224.401 485.988 223.402C486.987 222.403 487.549 221.048 487.551 219.636V58.2386C487.549 56.8257 486.987 55.4712 485.988 54.4721C484.989 53.4731 483.635 52.9111 482.222 52.9094H198.254Z" fill="white"/>
<path d="M199.445 246.283C199.008 246.283 198.581 246.409 198.213 246.645C197.846 246.88 197.553 247.216 197.37 247.612L182.661 279.587C182.501 279.935 182.431 280.318 182.458 280.7C182.484 281.082 182.606 281.451 182.813 281.774C183.02 282.096 183.304 282.361 183.64 282.545C183.976 282.729 184.353 282.825 184.736 282.825H494.044C494.433 282.825 494.816 282.726 495.156 282.536C495.496 282.347 495.782 282.073 495.987 281.742C496.192 281.411 496.308 281.033 496.326 280.644C496.343 280.255 496.261 279.868 496.086 279.52L480.099 247.545C479.91 247.165 479.619 246.845 479.258 246.622C478.897 246.399 478.481 246.281 478.057 246.283H199.445Z" fill="#2F2E41"/>
<path d="M339.096 50.2463C340.988 50.2463 342.522 48.7125 342.522 46.8204C342.522 44.9283 340.988 43.3945 339.096 43.3945C337.204 43.3945 335.67 44.9283 335.67 46.8204C335.67 48.7125 337.204 50.2463 339.096 50.2463Z" fill="white"/>
<path d="M308.693 288.915C308.191 288.915 307.703 289.081 307.304 289.386C306.906 289.692 306.619 290.12 306.488 290.604L302.798 304.308C302.707 304.646 302.695 305.001 302.763 305.345C302.831 305.689 302.977 306.013 303.191 306.291C303.404 306.569 303.678 306.795 303.993 306.95C304.307 307.105 304.653 307.186 305.003 307.186H375.168C375.532 307.186 375.891 307.099 376.215 306.932C376.538 306.765 376.817 306.523 377.028 306.227C377.24 305.93 377.377 305.587 377.428 305.227C377.48 304.866 377.445 304.499 377.326 304.155L372.582 290.451C372.427 290.003 372.135 289.614 371.749 289.338C371.362 289.063 370.899 288.915 370.424 288.915H308.693Z" fill="#2F2E41"/>
<path d="M495.925 232.198V235.243H182.038L182.274 234.863V232.198H495.925Z" fill="#2F2E41"/>
<path d="M487.169 106.583C516.601 106.583 540.461 82.7235 540.461 53.2915C540.461 23.8594 516.601 0 487.169 0C457.737 0 433.878 23.8594 433.878 53.2915C433.878 82.7235 457.737 106.583 487.169 106.583Z" fill="#23CAFF"/>
<path d="M509.248 76.5109H465.092C464.285 76.5101 463.511 76.189 462.94 75.6181C462.369 75.0471 462.048 74.273 462.047 73.4656V46.8199C462.048 46.0125 462.369 45.2384 462.94 44.6675C463.511 44.0966 464.285 43.7755 465.092 43.7747H509.248C510.055 43.7755 510.83 44.0966 511.4 44.6675C511.971 45.2384 512.292 46.0125 512.293 46.8199V73.4656C512.293 74.273 511.971 75.0471 511.4 75.6181C510.83 76.189 510.055 76.5101 509.248 76.5109ZM465.092 46.8199V73.4656H509.25L509.248 46.8199L465.092 46.8199Z" fill="white"/>
<path d="M500.874 46.8194H473.467V34.6385C473.467 25.8158 479.23 19.4124 487.17 19.4124C495.11 19.4124 500.874 25.8158 500.874 34.6385L500.874 46.8194ZM476.512 43.7742H497.829V34.6385C497.829 27.4666 493.446 22.4576 487.17 22.4576C480.895 22.4576 476.512 27.4667 476.512 34.6385L476.512 43.7742Z" fill="white"/>
<path d="M487.17 62.4266C488.852 62.4266 490.215 61.0632 490.215 59.3814C490.215 57.6996 488.852 56.3362 487.17 56.3362C485.488 56.3362 484.125 57.6996 484.125 59.3814C484.125 61.0632 485.488 62.4266 487.17 62.4266Z" fill="white"/>
<path d="M449.968 170.221H230.508C229.43 170.22 228.397 169.791 227.635 169.029C226.873 168.268 226.445 167.235 226.444 166.157V111.718C226.445 110.641 226.873 109.608 227.635 108.846C228.397 108.084 229.43 107.656 230.508 107.654H449.968C451.045 107.656 452.078 108.084 452.84 108.846C453.602 109.608 454.031 110.641 454.032 111.718V166.157C454.031 167.235 453.602 168.268 452.84 169.029C452.078 169.791 451.045 170.22 449.968 170.221ZM230.508 109.28C229.861 109.281 229.241 109.538 228.784 109.995C228.327 110.452 228.07 111.072 228.069 111.718V166.157C228.07 166.804 228.327 167.423 228.784 167.881C229.241 168.338 229.861 168.595 230.508 168.596H449.968C450.614 168.595 451.234 168.338 451.691 167.881C452.149 167.423 452.406 166.804 452.406 166.157V111.718C452.406 111.072 452.149 110.452 451.691 109.995C451.234 109.538 450.614 109.281 449.968 109.28L230.508 109.28Z" fill="#E6E6E6"/>
<path d="M264.608 153.403C273.751 153.403 281.163 145.992 281.163 136.849C281.163 127.706 273.751 120.294 264.608 120.294C255.465 120.294 248.053 127.706 248.053 136.849C248.053 145.992 255.465 153.403 264.608 153.403Z" fill="#E6E6E6"/>
<path d="M302.841 125.813C302.478 125.812 302.119 125.883 301.783 126.022C301.448 126.16 301.144 126.363 300.887 126.619C300.63 126.876 300.427 127.18 300.288 127.515C300.149 127.85 300.077 128.209 300.077 128.572C300.077 128.935 300.149 129.294 300.288 129.629C300.427 129.964 300.63 130.268 300.887 130.524C301.144 130.781 301.448 130.984 301.783 131.122C302.119 131.261 302.478 131.332 302.841 131.331H432.915C433.646 131.331 434.348 131.04 434.866 130.523C435.383 130.005 435.674 129.304 435.674 128.572C435.674 127.84 435.383 127.138 434.866 126.621C434.348 126.103 433.646 125.813 432.915 125.813H302.841Z" fill="#E6E6E6"/>
<path d="M302.84 142.367C302.108 142.367 301.406 142.658 300.889 143.176C300.372 143.693 300.081 144.395 300.081 145.127C300.081 145.858 300.372 146.56 300.889 147.078C301.406 147.595 302.108 147.886 302.84 147.886H358.811C359.543 147.886 360.245 147.595 360.762 147.078C361.28 146.56 361.57 145.858 361.57 145.127C361.57 144.395 361.28 143.693 360.762 143.176C360.245 142.658 359.543 142.367 358.811 142.367H302.84Z" fill="#E6E6E6"/>
<path d="M181.497 143.483L140.928 165.052L140.415 147.078C153.656 144.867 166.254 141.019 177.903 134.753L182.146 124.271C182.608 123.128 183.359 122.126 184.326 121.362C185.293 120.598 186.442 120.098 187.66 119.912C188.878 119.726 190.124 119.86 191.274 120.301C192.425 120.741 193.441 121.474 194.224 122.426C195.368 123.819 195.94 125.595 195.824 127.395C195.708 129.194 194.912 130.882 193.598 132.116L181.497 143.483Z" fill="#FFB8B8"/>
<path d="M82.3716 268.011C82.0757 266.926 82.0128 265.79 82.1873 264.679C82.3617 263.567 82.7694 262.505 83.3836 261.563L92.2954 247.886C94.4033 244.651 97.6376 242.314 101.371 241.329C105.104 240.344 109.07 240.781 112.5 242.555C108.754 248.931 109.276 254.523 113.793 259.384C106.781 262.807 100.301 267.225 94.5524 272.501C93.503 273.216 92.2978 273.671 91.0372 273.826C89.7767 273.981 88.4972 273.833 87.3055 273.394C86.1138 272.955 85.0443 272.237 84.186 271.301C83.3278 270.364 82.7057 269.237 82.3716 268.011Z" fill="#2F2E41"/>
<path d="M183.346 250.13C181.998 252.377 180.094 254.24 177.818 255.54C175.542 256.841 172.97 257.534 170.349 257.554L111.145 258.002L108.577 243.11L134.767 235.407L112.685 218.46L136.821 190.216L180.66 231.075C183.222 233.463 184.887 236.659 185.376 240.127C185.865 243.595 185.148 247.126 183.346 250.13Z" fill="#2F2E41"/>
<path d="M101.9 351.978H88.0351C75.586 266.644 62.9141 181.072 100.36 149.133L144.523 156.322L138.875 193.81L114.225 222.054L101.9 351.978Z" fill="#2F2E41"/>
<path d="M114.089 371.307C113.003 371.603 111.868 371.666 110.756 371.492C109.645 371.318 108.583 370.91 107.64 370.296L92.5851 368.272C89.3501 366.165 87.0133 362.93 86.0281 359.197C85.043 355.464 85.4797 351.498 87.2536 348.068C93.6291 351.813 99.2218 351.291 104.082 346.774C107.516 353.708 113.174 353.285 118.578 359.126C119.293 360.176 119.747 361.381 119.903 362.642C120.058 363.902 119.91 365.182 119.471 366.373C119.032 367.565 118.314 368.635 117.378 369.493C116.442 370.351 115.314 370.973 114.089 371.307Z" fill="#2F2E41"/>
<path d="M134.766 92.1299L109.089 85.9676C113.354 77.2385 113.705 67.5257 111.657 57.2098L129.117 56.6963C129.664 69.5244 131.319 81.509 134.766 92.1299Z" fill="#FFB8B8"/>
<path d="M141.824 171.783C123.132 184.52 109.925 172.219 99.847 153.239C101.248 141.626 98.9799 127.728 94.7802 112.627C92.9124 105.966 93.6097 98.8474 96.7344 92.6757C99.8592 86.5041 105.184 81.7282 111.658 79.291L133.74 88.5346C152.49 103.818 156.181 120.373 149.146 137.834L141.824 171.783Z" fill="#23CAFF"/>
<path d="M88.0353 104.969L67.494 115.753L103.955 137.321L109.028 149.835C109.367 150.67 109.532 151.566 109.513 152.467C109.494 153.368 109.292 154.256 108.919 155.076C108.546 155.897 108.01 156.632 107.343 157.239C106.676 157.845 105.893 158.31 105.041 158.603C104.072 158.937 103.039 159.043 102.023 158.911C101.007 158.779 100.036 158.414 99.1844 157.844C98.3331 157.274 97.6253 156.515 97.1164 155.625C96.6076 154.736 96.3115 153.741 96.2513 152.718L95.7383 143.997L49.3972 128.704C47.8358 128.189 46.4122 127.325 45.2341 126.178C44.056 125.031 43.1544 123.632 42.5975 122.085C41.7857 119.83 41.7444 117.369 42.48 115.088C43.2156 112.807 44.6866 110.835 46.6628 109.479L83.9271 83.9138L88.0353 104.969Z" fill="#FFB8B8"/>
<path d="M108.576 107.023C100.009 103.269 92.2193 107.347 82.3864 110.618L80.8458 83.4009C90.6095 78.197 99.9185 76.7939 108.576 80.8333L108.576 107.023Z" fill="#23CAFF"/>
<path d="M118.825 70.1791C127.878 70.1791 135.218 62.8394 135.218 53.7856C135.218 44.7317 127.878 37.3921 118.825 37.3921C109.771 37.3921 102.431 44.7317 102.431 53.7856C102.431 62.8394 109.771 70.1791 118.825 70.1791Z" fill="#FFB8B8"/>
<path d="M138.437 51.7168C122.206 53.3065 109.838 50.652 101.934 43.0937V37.0068H137.06L138.437 51.7168Z" fill="#2F2E41"/>
</g>
<defs>
<clipPath id="clip0_25_1104">
<rect width="546.172" height="380" fill="white"/>
</clipPath>
</defs>
</svg>
