<svg xmlns="http://www.w3.org/2000/svg" width="359" height="103" viewBox="0 0 359 103" fill="none">
<path d="M15.1292 45.017C14.498 44.3584 14.498 43.3194 15.1292 42.6608L47.459 8.93176C48.5206 7.82419 50.3905 8.57564 50.3905 10.1098L50.3905 77.568C50.3905 79.1022 48.5206 79.8536 47.459 78.746L15.1292 45.017Z" fill="#ffffff"/>
<path d="M92.2614 63.7875C92.8927 64.446 92.8927 65.4851 92.2614 66.1436L59.9317 99.8727C58.87 100.98 57.0001 100.229 57.0001 98.6946L57.0001 31.2365C57.0001 29.7023 58.87 28.9509 59.9317 30.0584L92.2614 63.7875Z" fill="#ffffff"/>
<path d="M105.662 58.9V36.1L111.762 30H131.262V37.3H114.062V57.7H125.962V50.5H118.662V43.85H133.362V65H111.762L105.662 58.9ZM138.34 65V57.7H156.94V51.15L137.84 49.5V35.8L143.64 30H164.84V37.3H146.24V43.35L165.34 45V59.2L159.54 65H138.34ZM177.672 65V37.3H168.572V30H195.172V37.3H186.072V65H177.672ZM219.974 50.8H230.674V36.7H219.974V50.8ZM239.074 36.1V51.4L232.974 57.5H219.974V65H211.574V30H232.974L239.074 36.1ZM242.473 59.3V42.7L248.173 37H262.773L268.473 42.7V59.3L262.773 65H248.173L242.473 59.3ZM250.873 58.3H260.073V43.7H250.873V58.3ZM272.853 65V43L278.853 37H292.953V44.6H281.253V65H272.853ZM296.339 32.5L304.739 30V38H314.439V45H304.739V58H314.439V65H302.339L296.339 59V32.5ZM317.324 59V49L334.624 48.5V44H318.324V37H337.024L343.024 43V65H323.324L317.324 59ZM325.724 53.6V58.3H334.624V52.6L325.724 53.6ZM347.804 65V30H356.204V65H347.804Z" fill="#ffffff"/>
</svg>