<svg width="28" height="28" viewBox="0 0 28 28" fill="none" xmlns="http://www.w3.org/2000/svg">
<path d="M25.0162 19.6788C24.7712 19.2413 24.4737 18.8038 24.1412 18.34C23.35 17.352 22.8015 16.1922 22.5399 14.9538L22.1724 9.79125C21.9537 5.7925 19.6174 1.75 14.9712 1.75H13.0287C8.38241 1.75 6.02866 5.7925 5.79241 9.7825L5.42491 14.9538C5.16442 16.2032 4.61615 17.3746 3.82366 18.375C3.52616 18.83 3.22866 19.25 3.02741 19.6438C2.81142 19.9336 2.68061 20.278 2.6497 20.6382C2.61878 20.9984 2.68898 21.3601 2.85241 21.6825C3.04308 22.0211 3.32398 22.3002 3.66384 22.4887C4.0037 22.6771 4.38919 22.7676 4.77741 22.75H11.5324C11.3885 23.1465 11.3423 23.5718 11.3976 23.99C11.4529 24.4081 11.6082 24.8068 11.8503 25.1522C12.0924 25.4976 12.4142 25.7796 12.7883 25.9743C13.1625 26.1689 13.5781 26.2706 13.9999 26.2706C14.4217 26.2706 14.8373 26.1689 15.2115 25.9743C15.5857 25.7796 15.9074 25.4976 16.1495 25.1522C16.3916 24.8068 16.5469 24.4081 16.6022 23.99C16.6576 23.5718 16.6113 23.1465 16.4674 22.75H23.2224C23.6142 22.7642 24.0022 22.6685 24.3424 22.4737C24.6826 22.2788 24.9614 21.9926 25.1474 21.6475C25.311 21.3397 25.3853 20.9923 25.3621 20.6444C25.3389 20.2966 25.2191 19.9622 25.0162 19.6788ZM14.8749 23.625C14.8749 23.7981 14.8236 23.9672 14.7274 24.1111C14.6313 24.255 14.4946 24.3672 14.3348 24.4334C14.1749 24.4996 13.9989 24.517 13.8292 24.4832C13.6595 24.4494 13.5036 24.3661 13.3812 24.2437C13.2588 24.1213 13.1755 23.9654 13.1417 23.7957C13.108 23.626 13.1253 23.45 13.1915 23.2902C13.2577 23.1303 13.3699 22.9936 13.5138 22.8975C13.6577 22.8013 13.8269 22.75 13.9999 22.75C14.232 22.75 14.4545 22.8422 14.6186 23.0063C14.7827 23.1704 14.8749 23.3929 14.8749 23.625ZM23.6249 20.8513C23.6249 20.9213 23.4762 21 23.2574 21H4.77741C4.55866 21 4.44491 20.9213 4.40991 20.8513C4.37491 20.7813 4.40991 20.685 4.49741 20.545C4.73366 20.1425 5.00491 19.7225 5.28491 19.3025C6.15991 18.0425 7.03491 16.6075 7.16616 15.0763L7.54241 9.905C7.72616 6.9475 9.27491 3.5 13.0287 3.5H14.9712C18.7249 3.5 20.2737 6.9475 20.4574 9.91375L20.8337 15.0763C20.9387 16.625 21.8749 18.0425 22.7499 19.3025C23.0299 19.7225 23.3012 20.1775 23.5812 20.6238C23.609 20.6538 23.6279 20.691 23.6356 20.7312C23.6434 20.7715 23.6396 20.813 23.6249 20.8513Z" fill="#606060"/>
</svg>
