<svg width="28" height="28" viewBox="0 0 28 28" fill="none" xmlns="http://www.w3.org/2000/svg">
<path d="M8.16634 2.33337H6.99967C3.49967 2.33337 2.33301 4.42171 2.33301 7.00004V8.16671V24.5C2.33301 25.4684 3.42967 26.0167 4.19967 25.4334L6.19467 23.94C6.66134 23.59 7.31467 23.6367 7.73467 24.0567L9.67134 26.005C10.1263 26.46 10.873 26.46 11.328 26.005L13.288 24.045C13.6963 23.6367 14.3497 23.59 14.8047 23.94L16.7997 25.4334C17.5697 26.005 18.6663 25.4567 18.6663 24.5V4.66671C18.6663 3.38337 19.7163 2.33337 20.9997 2.33337H8.16634ZM6.96467 16.345C6.32301 16.345 5.79801 15.82 5.79801 15.1784C5.79801 14.5367 6.32301 14.0117 6.96467 14.0117C7.60634 14.0117 8.13134 14.5367 8.13134 15.1784C8.13134 15.82 7.60634 16.345 6.96467 16.345ZM6.96467 11.6784C6.32301 11.6784 5.79801 11.1534 5.79801 10.5117C5.79801 9.87004 6.32301 9.34504 6.96467 9.34504C7.60634 9.34504 8.13134 9.87004 8.13134 10.5117C8.13134 11.1534 7.60634 11.6784 6.96467 11.6784ZM13.9997 16.0534H10.4997C10.0213 16.0534 9.62467 15.6567 9.62467 15.1784C9.62467 14.7 10.0213 14.3034 10.4997 14.3034H13.9997C14.478 14.3034 14.8747 14.7 14.8747 15.1784C14.8747 15.6567 14.478 16.0534 13.9997 16.0534ZM13.9997 11.3867H10.4997C10.0213 11.3867 9.62467 10.99 9.62467 10.5117C9.62467 10.0334 10.0213 9.63671 10.4997 9.63671H13.9997C14.478 9.63671 14.8747 10.0334 14.8747 10.5117C14.8747 10.99 14.478 11.3867 13.9997 11.3867Z" fill="#5C646B"/>
<path d="M21.012 2.33337V4.08337C21.782 4.08337 22.517 4.39837 23.0537 4.92337C23.6137 5.49504 23.917 6.23004 23.917 7.00004V9.82337C23.917 10.6867 23.532 11.0834 22.657 11.0834H20.417V4.67837C20.417 4.35171 20.6853 4.08337 21.012 4.08337V2.33337ZM21.012 2.33337C19.717 2.33337 18.667 3.38337 18.667 4.67837V12.8334H22.657C24.5003 12.8334 25.667 11.6667 25.667 9.82337V7.00004C25.667 5.71671 25.142 4.55004 24.302 3.69837C23.4503 2.85837 22.2953 2.34504 21.012 2.33337C21.0237 2.33337 21.012 2.33337 21.012 2.33337Z" fill="#5C646B"/>
</svg>
