<svg width="28" height="28" viewBox="0 0 28 28" fill="none" xmlns="http://www.w3.org/2000/svg">
<path d="M18.888 2.33337H9.11134C4.86467 2.33337 2.33301 4.86504 2.33301 9.11171V18.8884C2.33301 23.135 4.86467 25.6667 9.11134 25.6667H18.888C23.1347 25.6667 25.6663 23.135 25.6663 18.8884V9.11171C25.6663 4.86504 23.1347 2.33337 18.888 2.33337ZM11.6313 17.3834L9.00634 20.0084C8.83134 20.1834 8.60967 20.265 8.38801 20.265C8.16634 20.265 7.93301 20.1834 7.76967 20.0084L6.89467 19.1334C6.54467 18.795 6.54467 18.235 6.89467 17.8967C7.23301 17.5584 7.78134 17.5584 8.13134 17.8967L8.38801 18.1534L10.3947 16.1467C10.733 15.8084 11.2813 15.8084 11.6313 16.1467C11.9697 16.485 11.9697 17.045 11.6313 17.3834ZM11.6313 9.21671L9.00634 11.8417C8.83134 12.0167 8.60967 12.0984 8.38801 12.0984C8.16634 12.0984 7.93301 12.0167 7.76967 11.8417L6.89467 10.9667C6.54467 10.6284 6.54467 10.0684 6.89467 9.73004C7.23301 9.39171 7.78134 9.39171 8.13134 9.73004L8.38801 9.98671L10.3947 7.98004C10.733 7.64171 11.2813 7.64171 11.6313 7.98004C11.9697 8.31837 11.9697 8.87837 11.6313 9.21671ZM20.4863 19.39H14.3613C13.883 19.39 13.4863 18.9934 13.4863 18.515C13.4863 18.0367 13.883 17.64 14.3613 17.64H20.4863C20.9763 17.64 21.3613 18.0367 21.3613 18.515C21.3613 18.9934 20.9763 19.39 20.4863 19.39ZM20.4863 11.2234H14.3613C13.883 11.2234 13.4863 10.8267 13.4863 10.3484C13.4863 9.87004 13.883 9.47337 14.3613 9.47337H20.4863C20.9763 9.47337 21.3613 9.87004 21.3613 10.3484C21.3613 10.8267 20.9763 11.2234 20.4863 11.2234Z" fill="#5C646B"/>
</svg>
