<svg width="28" height="28" viewBox="0 0 28 28" fill="none" xmlns="http://www.w3.org/2000/svg">
<path d="M14.791 23.2832C15.1116 23.3578 15.1409 23.7776 14.8287 23.8817L12.9854 24.4884C8.35373 25.9817 5.9154 24.7334 4.4104 20.1017L2.91706 15.4934C1.42373 10.8617 2.6604 8.4117 7.29206 6.91836L8.07273 6.65983C8.47559 6.52642 8.86514 6.92954 8.74634 7.33695C8.6624 7.6248 8.58276 7.9286 8.5054 8.24836L7.36206 13.1367C6.07873 18.6317 7.95706 21.665 13.4521 22.9717L14.791 23.2832Z" fill="#5C646B"/>
<path d="M20.0316 3.74497L18.0832 3.28997C14.1866 2.3683 11.8649 3.12664 10.4999 5.94997C10.1499 6.66164 9.86988 7.52497 9.63655 8.51664L8.49322 13.405C7.34988 18.2816 8.85488 20.685 13.7199 21.84L15.6799 22.3066C16.3566 22.47 16.9866 22.575 17.5699 22.6216C21.2099 22.9716 23.1466 21.2683 24.1266 17.0566L25.2699 12.18C26.4132 7.3033 24.9199 4.8883 20.0316 3.74497ZM17.8382 15.5516C17.7332 15.9483 17.3832 16.205 16.9866 16.205C16.9166 16.205 16.8466 16.1933 16.7649 16.1816L13.3699 15.3183C12.9032 15.2016 12.6232 14.7233 12.7399 14.2566C12.8566 13.79 13.3349 13.51 13.8016 13.6266L17.1966 14.49C17.6749 14.6066 17.9549 15.085 17.8382 15.5516ZM21.2566 11.6083C21.1516 12.005 20.8016 12.2616 20.4049 12.2616C20.3349 12.2616 20.2649 12.25 20.1832 12.2383L14.5249 10.8033C14.0582 10.6866 13.7782 10.2083 13.8949 9.74164C14.0116 9.27497 14.4899 8.99497 14.9566 9.11164L20.6149 10.5466C21.0932 10.6516 21.3732 11.13 21.2566 11.6083Z" fill="#5C646B"/>
</svg>
