<svg width="23" height="24" viewBox="0 0 23 24" fill="none" xmlns="http://www.w3.org/2000/svg">
<g clip-path="url(#clip0_294_830)">
<path d="M19.9999 20.7697L15.859 16.3909M18.1537 10.5389C18.1537 12.7354 17.3271 14.842 15.8556 16.3952C14.3842 17.9484 12.3885 18.8209 10.3076 18.8209C8.22665 18.8209 6.23095 17.9484 4.75951 16.3952C3.28807 14.842 2.46143 12.7354 2.46143 10.5389C2.46143 8.34235 3.28807 6.23578 4.75951 4.68259C6.23095 3.12941 8.22665 2.25684 10.3076 2.25684C12.3885 2.25684 14.3842 3.12941 15.8556 4.68259C17.3271 6.23578 18.1537 8.34235 18.1537 10.5389V10.5389Z" stroke="#606060" stroke-width="2.62784" stroke-linecap="round"/>
</g>
<defs>
<clipPath id="clip0_294_830">
<rect width="22.1538" height="23.3846" fill="white" transform="translate(0.615234 0.307617)"/>
</clipPath>
</defs>
</svg>
