<svg width="28" height="28" viewBox="0 0 28 28" fill="none" xmlns="http://www.w3.org/2000/svg">
<path d="M23.4497 10.7566C21.338 10.7566 20.4747 9.2633 21.5247 7.43163C22.1313 6.36997 21.7697 5.01663 20.708 4.40997L18.6897 3.25497C17.768 2.70663 16.578 3.0333 16.0297 3.95497L15.9013 4.17663C14.8513 6.0083 13.1247 6.0083 12.063 4.17663L11.9347 3.95497C11.4097 3.0333 10.2197 2.70663 9.29801 3.25497L7.27967 4.40997C6.21801 5.01663 5.85634 6.38163 6.46301 7.4433C7.52467 9.2633 6.66134 10.7566 4.54967 10.7566C3.33634 10.7566 2.33301 11.7483 2.33301 12.9733V15.0266C2.33301 16.24 3.32467 17.2433 4.54967 17.2433C6.66134 17.2433 7.52467 18.7366 6.46301 20.5683C5.85634 21.63 6.21801 22.9833 7.27967 23.59L9.29801 24.745C10.2197 25.2933 11.4097 24.9666 11.958 24.045L12.0863 23.8233C13.1363 21.9916 14.863 21.9916 15.9247 23.8233L16.053 24.045C16.6013 24.9666 17.7913 25.2933 18.713 24.745L20.7313 23.59C21.793 22.9833 22.1547 21.6183 21.548 20.5683C20.4863 18.7366 21.3497 17.2433 23.4613 17.2433C24.6747 17.2433 25.678 16.2516 25.678 15.0266V12.9733C25.6663 11.76 24.6747 10.7566 23.4497 10.7566ZM13.9997 17.7916C11.9113 17.7916 10.208 16.0883 10.208 14C10.208 11.9116 11.9113 10.2083 13.9997 10.2083C16.088 10.2083 17.7913 11.9116 17.7913 14C17.7913 16.0883 16.088 17.7916 13.9997 17.7916Z" fill="#5C646B"/>
</svg>
