<svg width="24" height="19" viewBox="0 0 24 19" fill="none" xmlns="http://www.w3.org/2000/svg">
<g clip-path="url(#clip0_130_226)">
<path d="M11.6118 6.49244L14.9853 9.21228L15.0013 9.06981C15.0013 7.64081 13.5609 6.47949 11.7885 6.47949L11.6118 6.49244Z" fill="#A8A8A8"/>
<path d="M11.7882 4.75234C14.7451 4.75234 17.1449 6.68646 17.1449 9.06955C17.1449 9.62647 17.0057 10.1575 16.7646 10.6453L19.8983 13.1709C21.516 12.0829 22.7909 10.6755 23.5783 9.06955C21.7196 5.27906 17.1503 2.59375 11.7883 2.59375C10.2884 2.59375 8.85286 2.8096 7.51904 3.19814L9.83313 5.05884C10.4384 4.8689 11.0972 4.75234 11.7882 4.75234Z" fill="#A8A8A8"/>
<path d="M1.07522 2.39923L3.51787 4.36787L4.00534 4.76075C2.23764 5.87459 0.839548 7.3554 0.00390625 9.0693C1.85733 12.8598 6.43192 15.5451 11.7886 15.5451C13.4492 15.5451 15.0348 15.2861 16.4864 14.8155L16.9418 15.1825L20.0647 17.7037L21.4307 16.6071L2.44118 1.29834L1.07522 2.39923ZM6.99974 7.16975L8.65495 8.50376C8.60674 8.68942 8.5746 8.87503 8.5746 9.0693C8.5746 10.4983 10.0155 11.6596 11.7886 11.6596C12.0297 11.6596 12.26 11.6337 12.485 11.5949L14.1402 12.9289C13.4278 13.2138 12.635 13.3865 11.7886 13.3865C8.83173 13.3865 6.43192 11.4524 6.43192 9.0693C6.43192 8.3872 6.6462 7.74824 6.99974 7.16975Z" fill="#A8A8A8"/>
</g>
<defs>
<clipPath id="clip0_130_226">
<rect width="23.5747" height="19" rx="8" fill="white"/>
</clipPath>
</defs>
</svg>
