<svg width="22" height="22" viewBox="0 0 22 22" fill="none" xmlns="http://www.w3.org/2000/svg">
<path d="M10.0992 0H11.8609C11.8834 0.0515 11.9313 0.0388878 11.9717 0.0425664C13.6362 0.190235 15.1977 0.675281 16.6189 1.55236C19.5553 3.36379 21.3217 5.97348 21.8807 9.38982C21.9238 9.65415 21.9133 9.92637 22 10.1839V11.8597C21.918 12.0599 21.9327 12.2754 21.9023 12.4835C21.5566 14.8746 20.573 16.9672 18.8613 18.6709C16.0367 21.4829 12.6295 22.5313 8.7216 21.7483C5.85029 21.1733 3.5832 19.6021 1.92609 17.1937C0.335184 14.8814 -0.263245 12.3048 0.10506 9.52435C0.420824 7.13748 1.438 5.07275 3.11822 3.34645C4.841 1.57653 6.92841 0.502914 9.37152 0.120342C9.61425 0.0825051 9.86644 0.0993215 10.0992 0Z" fill="#14BB7F"/>
<path d="M6.00682 9.94219C6.3217 9.93493 6.57011 10.0557 6.78762 10.2496C7.56084 10.9401 8.34397 11.6219 9.1067 12.3217C9.28805 12.4881 9.37551 12.4617 9.5417 12.3134C11.4059 10.6457 13.2789 8.98571 15.1467 7.32159C15.4167 7.08104 15.7234 6.95248 16.1106 7.01624C16.8815 7.14377 17.2092 7.93747 16.7141 8.47818C16.6593 8.53832 16.5957 8.59223 16.5339 8.64718C14.4114 10.5347 12.2888 12.4218 10.1656 14.3088C9.59127 14.8195 9.05013 14.8189 8.47517 14.3078C7.42497 13.3741 6.37185 12.443 5.32573 11.5057C4.75894 10.9977 4.96186 10.1993 5.70184 9.98211C5.80214 9.95256 5.9036 9.94582 6.00623 9.94219H6.00682Z" fill="#F8F9F9"/>
</svg>
